<?xml version="1.0" encoding="utf-8"?>
<!-- Generator: Adobe Illustrator 15.0.0, SVG Export Plug-In . SVG Version: 6.00 Build 0)  -->
<!DOCTYPE svg PUBLIC "-//W3C//DTD SVG 1.1//EN" "http://www.w3.org/Graphics/SVG/1.1/DTD/svg11.dtd">
<svg version="1.1" id="레이어_1" xmlns:amcharts="http://amcharts.com/ammap"
	 xmlns="http://www.w3.org/2000/svg" xmlns:xlink="http://www.w3.org/1999/xlink" x="0px" y="0px" width="612px" height="792px"
	 viewBox="0 0 612 792" enable-background="new 0 0 612 792" xml:space="preserve">
<defs>
	
	
		<amcharts:ammap  projection="mercator" leftLongitude="125.385069" topLatitude="38.611881" rightLongitude="131.873029" bottomLatitude="33.194810">
		</amcharts:ammap>
</defs>
<g>
	<g>
		<polygon fill="#CCCCCC" stroke="#FFFFFF" stroke-width="0.5" points="99.77,309.513 96.991,306.622 96.231,306.491 95.34,308.922 
			96.52,309.218 96.415,311.155 97.359,312.074 98.93,311.647 		"/>
		<polygon fill="#CCCCCC" stroke="#FFFFFF" stroke-width="0.5" points="89.732,292.484 90.126,293.044 91.986,292.419 
			94.03,292.846 94.291,291.398 91.331,291.826 89.916,289.818 89.05,290.082 87.217,288.831 89.078,291.334 88.711,293.439 		"/>
		<polygon fill="#CCCCCC" stroke="#FFFFFF" stroke-width="0.5" points="74.927,275.159 73.879,274.796 72.647,275.687 
			73.826,276.413 74.979,275.918 75.844,277.401 77.704,277.731 77.993,276.28 76.552,273.774 		"/>
		<polygon fill="#CCCCCC" stroke="#FFFFFF" stroke-width="0.5" points="70.184,325.327 69.267,325.95 68.507,323.097 
			67.407,322.933 65.886,328.932 67.143,328.736 67.327,327.949 67.721,329.227 68.874,328.866 68.717,330.308 72.098,329.784 
			73.697,327.917 70.421,325.885 		"/>
		<polygon fill="#CCCCCC" stroke="#FFFFFF" stroke-width="0.5" points="102.73,320.999 100.792,321.425 100.608,322.704 
			99.063,322.573 98.355,324.082 99.168,326.049 98.828,327.917 100.714,327.884 100.767,328.801 101.396,328.736 102.732,327.621 
			102.471,326.769 103.99,326.671 102.837,325.36 104.095,325.327 103.886,324.573 104.881,325.295 105.563,323.328 
			104.252,321.623 		"/>
		<polygon fill="#CCCCCC" stroke="#FFFFFF" stroke-width="0.5" points="88.711,324.671 85.278,322.9 84.203,324.146 88.187,326.244 
			90.257,325.72 90.991,324.508 89.628,323.984 		"/>
		<polygon fill="#CCCCCC" stroke="#FFFFFF" stroke-width="0.5" points="82.054,277.829 78.936,277.73 82.658,281.585 
			82.998,281.024 81.871,280.201 		"/>
		<g>
			<polygon fill="#CCCCCC" stroke="#FFFFFF" stroke-width="0.5" points="86.012,264.568 87.978,263.38 89.681,260.606 
				88.606,259.418 86.221,260.078 83.181,258.328 80.534,258.328 78.963,259.814 78.754,262.092 77.233,263.743 79.042,265.823 
				80.116,266.251 81.164,264.832 83.392,264.238 			"/>
			<polygon fill="#CCCCCC" stroke="#FFFFFF" stroke-width="0.5" points="94.556,272.455 96.522,277.038 95.657,279.411 
				92.487,280.004 93.64,282.079 93.063,282.87 96.338,284.814 101.684,285.176 101.711,284.155 102.602,284.584 103.179,283.662 
				106.323,284.584 107.135,282.937 108.499,282.541 107.319,277.829 108.26,276.61 106.793,275.258 107.579,272.092 
				106.426,270.377 107.659,266.648 106.295,264.965 105.955,262.687 101.448,259.748 99.299,256.974 95.368,257.701 94.53,259.716 
				91.045,261.598 91.569,271.663 			"/>
			<g>
				<polygon fill="#CCCCCC" stroke="#FFFFFF" stroke-width="0.5" points="110.671,298.734 112.924,297.32 112.504,295.478 
					111.116,294.163 107.552,293.176 106.819,291.991 105.037,292.451 104.356,295.149 103.019,296.103 97.464,296.366 
					93.533,299.16 91.882,299.193 91.647,300.573 93.192,302.349 92.328,302.974 93.953,303.796 95.551,302.547 96.022,303.27 
					95.131,304.19 96.362,303.369 97.305,304.026 96.965,305.997 99.821,305.438 108.679,298.076 				"/>
				<path fill="#CCCCCC" stroke="#FFFFFF" stroke-width="0.5" d="M229.097,292.15l-8.951-1.363l-4.299-3.687l-2.684-0.324
					l-4.105-2.474l-3.632,1.398l-2.634-2.838l1.745-3.506l0.31-4.379l-3.583,0.901l0.12-2.02l2.693-3.072l-1.318-3.498l0.824-1.957
					l-0.847-2.942l0.589-1.522l2.257-0.75l1.795-2.061l3.304-1.071l0.998-3.959L210.863,249l-1.441-1.586l-4.196-1.417l-0.083-2.697
					l-0.879-0.602l-3.212,0.342l-3.088-1.525l-1.554-3.017l-0.402-7.501l-1.421-1.969l-1.954,1.043l-2.088-1.547l-1.483,0.195
					l-4.098,1.929l-4.459-3.578l0.482-5.312l1.091-0.918l-1.967-0.877l-3.654,3.736l-2.431,0.162l-1.64-0.829l-0.394-3.184
					l-0.992,0.31l-0.179-1.074l0.623-1.868l-1.558-1.246l-0.934-5.294h-4.671v-1.868l1.245-0.935l-4.729-4.408l-1.325,0.578
					l-5.557,4.254l-4.89,5.803h-2.803l-4.671-1.869l-2.492,1.557l-5.605,4.671l-3.426,4.983l1.869,0.934l1.868,3.737l6.296,0.289
					l3.358,1.891l0.623,3.114l-1.245,0.934l-0.312,1.869l-4.982-0.623l-0.312,3.737l-1.558,0.935l0.312,2.491l1.868,0.934
					l-0.311,6.54l-2.181,1.246l-3.114-3.737l1.246-4.36l-1.955-2.464l-2.398,0.072l-0.318,2.704l-1.869,1.869l-3.468-3.335
					l-0.74,0.107l0.895,4.892l-0.485,1.865l4.731,1.764l3.426,4.983l-6.54,1.868h-2.83l-0.959,4.537l-2.998,0.175l-3.067,2.459
					l-3.556-0.528l-2.018-1.604l-0.602,1.171l-1.755,0.792l1.1,1.75l-0.865,4.223l1.075,1.782l-0.498,3.099l1.153,0.527l-0.76,1.714
					l2.647,6.326l2.362,3.096l4.137-2.71l2.109-2.838l2.072,0.192l0.001,0.001l-2.07-0.192l-2.109,2.838l-4.137,2.71l2.013,2.571
					l-3.905,1.613l0.105,0.066l0.996,0.164l2.778-1.645l-0.053,1.415l-0.681,0.296l1.231,1.251l0.157,1.25l-0.969-0.099l1.022,1.085
					l-0.053,1.316l2.411-1.118l0.918,1.677l-1.231-0.395l-2.988,1.184l-1.205,4.635l1.205,0.493l0.813-1.282l-0.184,2.596
					l1.467,0.099l0.498-2.301l0.943,4.271l4.036,3.154l-3.59,4.498l-4.56-0.821l-0.523,1.838l-0.839,0.264l0.996,0.032l0.341-1.083
					l4.586-0.132l3.668-4.628l3.564,0.492l1.965-2.266l-0.446-2.99l0.603,2.333l0.393-1.676l0.681,0.526l-0.472,1.807l1.995,0.591
					l0,0l1.228,0.591l-3.957-0.755l-0.891,1.051l0.813,0.624l-0.393,1.511l-4.691,2.626l0.289,1.51l-7.469,2.56l-2.934,2.231
					l-0.918-0.263l0.472,0.984l-1.284,1.377l-2.883-1.377l2.883,4.033l-0.342,2.065l-1.808,1.114l1.442,1.474h-1.206l0.288,0.852
					l-1.074,1.081l1.65-0.688l1.022,1.572l1.834-3.374l3.014,1.54l0.786-3.31l0.262,1.639l1.992,1.245l-0.524,1.704l0.576,0.622
					l0.787-2.326l-0.341-1.638l-2.621-1.344l-0.629-2.688l-2.201-0.393l-2.123-2l1.022-1.804l3.197-2.23l6.473-2.231l9.355,4.527
					l3.092-0.393l2.751,3.279l1.258-0.426l-0.996,1.771l-1.573-2l-1.913-0.492l0.157-0.918l-0.891,0.328l-0.34,0.787l0.943,1.279
					l-1.913-0.099l0.733,1.738l-0.917,0.853l0.655,0.196l-2.228,3.342l-1.31-0.884l0.576-0.688l-0.603-3.015l-2.646,0.852
					l-0.341-1.082l-3.564-0.754l-0.733,1.835l-1.704,0.361l0.393,1.737l0.918,0.59l-0.943,1.737l0.969,1.54l-1.415,0.033
					l-1.153,1.474l1.179,2.587l-1.073,0.95l1.494-0.623l2.437,0.491l-2.228,2.128l1.284,0.818l-0.183,1.767l0.838,0.786l0.394-1.604
					l3.354-1.898l2.07-3.405l2.542,0.229l1.389-2.129l0.943,2.391l-2.149,1.31l4.665,0.066l-2.071,0.588l0.918,1.016l-0.813-0.36
					l-1.362,1.31l-1.049-0.721l-2.017,1.931l0.052,7.065l-1.572,2.746l0.367,0.785l4.297,0.327l0.288,2.091l-1.336,0.425
					l0.052,0.816l3.904,0.817l1.625,4.147l1.912,0.784l0.446,1.861l1.939-0.326l1.415,0.914l0.864,4.55l3.451-2.073l7.536,1.758
					l4.929-1.769l3.003-2.065l2.579-0.084l2.983,1.423l3.281,3.376l5.085,0.697l2.759-0.231l3.773-1.699l1.701-1.235l2.206,0.136
					l1.792-1.745l0.165-2.104l-0.302-1.083l5.078-3.003l0.799-2.623l2.334-2.565l0.801,1.188l1.48-0.022l-0.272,2.065l1.595-3.218
					l4.294,0.78l4.048-3.737l2.491-0.311l0.623-7.785h1.557l1.557,1.869h1.869l2.657-6.634l2.643-0.582l0.617-7.421l-0.623-3.426
					l1.558-1.245l-0.312-7.474l3.426-8.097l0.312-4.048l-1.949-0.709l-0.785-2.376l3.131-4.024l2.06-0.701l0.792-2.179
					L229.097,292.15z M129.776,299.306L129.776,299.306l3.301,2.892L129.776,299.306z"/>
			</g>
			<polygon fill="#CCCCCC" stroke="#FFFFFF" stroke-width="0.5" points="93.769,274.235 92.721,272.95 90.231,272.587 
				88.134,270.938 88.108,268.629 89.13,266.55 88.213,265.989 84.989,267.308 84.91,270.707 83.39,271.268 87.976,274.434 
				89,275.884 88.737,277.961 89.812,279.015 93.376,276.279 			"/>
		</g>
	</g>
	<path id="KR-42" fill="#CCCCCC" stroke="#FFFFFF" stroke-width="0.5" d="M280.637,163.399l1.415,2.806l2.149,2.737l0.575-0.167
		l0.787,1.735l-0.549,1.268l1.755,2.335l-0.577,1.302l1.153,1.001l-0.157,1.466l3.695,4.867l-1.127,0.5l-0.051,1.699l5.502,7.593
		l-0.629,0.432l0.262,1.664l1.598,2.23l-0.026,1.464l2.307,1.995l0.837,5.618l3.985,5.183l-0.814,1.129l2.021,2.723l-0.917,0.996
		l0.917,4.049l5.58,6.567l0.709,3.016l4.034,4.308l1.101,0.099l-0.498,1.888l3.748,6.159l1.679,1.19l-0.08,1.06l4.09,3.737
		l-0.079,2.481l4.376,5.024l0.234,1.453l16.93,18.45l-1.205,4.647l2.385,3.229l4.48,3.689l0.366,1.81l-0.941,1.942l1.938,5.165
		l5.161,5.294l1.102,5.028l4.823,3.744l1.702,6.861l1.833,1.608l1.022-0.098l0.473,2.525l1.651,0.066l0.812,1.082l-0.262,1.804
		l2.804,3.409l-1.468,1.114l0.708,1.77l-0.84,2.391l0.551,2.588l2.727,3.928l-0.315,1.178l0.813,0.835l0,0l-4.27,0.714l0,0
		l-1.867,2.18l-2.492,0.935l-2.803,2.491l0,0l-1.557,2.179v1.246l0,0l1.557,2.803l-6.521,0.161l0,0l-2.653-2.267l-2.945-1.029
		l-2.604-0.397l-2.544,2.51l-7.413-2.61l-3.341,0.715l-0.678-1.321l-1.719-0.682l0,0l-2.902,4.297l0,0l-0.934,1.245h-4.048
		l-6.229-4.359l-2.014,0.184l-0.542,4.707l-1.111,1.116l-3.062-1.371l-1.914,0.255l-4.243-2.332l0,0l-2.374-2.134l-3.485,0.21
		l-3.948-1.274l0,0l-3.581-2.908l-2.005-0.09l0,0l-4.226,1.001l0,0l-1.882,0.468l-0.816-1.395l0,0l-1.793-1.642l0.105-2.616l0,0
		l-0.963-0.808l-1.454,0.326l0,0l-3.278-0.14l-1.188,1.253l0,0l-1.963,0.657l0,0l-0.692,0.469l-2.31-1.765l-0.66-1.693l3.258-2.021
		l2.348-2.723l0.106-1.363l0,0l-1.553-0.527l-1.362,0.831l0,0l-1.05,0.264l0,0l-1.708-0.23l-1.471-1.731l-2.12-0.433l-1.979-1.506
		l-2.451,0.587l-1.786,2.444l-3.645-0.908l-3.668,3.074l0,0l-5.067,0.858l0,0l-0.272-3.841l0,0l-1.774-3.3l-4.258-0.441
		l-1.495,0.942l0,0l-2.837,2.681l0.993,4.68l-0.421,1.798l-3.147,2.098l-2.323-1.151l-3.029,0.094l-1.445,1.872l-2.18,0.934
		l-4.049-3.114l-0.617-3.478l0,0l0.617-7.422l-0.623-3.426l1.558-1.245l-0.312-7.473l3.426-8.097l0.311-4.048l-1.949-0.71
		l-0.784-2.376l3.13-4.024l2.06-0.701l0.793-2.179l-1.648-2.895l-8.951-1.363l-4.299-3.687l-2.684-0.324l-4.105-2.474l-3.632,1.398
		l-2.634-2.838l1.744-3.506l0.311-4.379l-3.583,0.901l0.12-2.02l2.693-3.072l-1.319-3.498l0.824-1.956l-0.847-2.943l0.589-1.521
		l2.257-0.749l1.795-2.061l3.305-1.071l0.998-3.96L210.871,249l-1.442-1.587l-4.196-1.417l-0.083-2.697l-0.879-0.602l-3.213,0.342
		l-3.088-1.525l-1.554-3.017l-0.402-7.501l-1.421-1.969l-1.954,1.043l-2.089-1.547l-1.483,0.195l-4.098,1.929l-4.46-3.578
		l0.483-5.311l1.091-0.919l-1.968-0.877l-3.654,3.736l-2.431,0.162l-1.64-0.829l-0.393-3.183l-0.992,0.309l-0.179-1.074l0.623-1.868
		l-1.558-1.246l-0.933-5.294h-4.671v-1.868l1.245-0.935l-4.729-4.409l0,0l4.034-3.245l3.359,0.38l6.678-3.054l3.409,0.523
		l1.598,1.191l3.186-0.115l1.136-0.941l6.002-1.121l9.214,3.989l8.222-4.226l2.598,1.433l3.779-0.408l2.658,0.669l1.953-1.312
		l5.777,0.29l2.535-1.393l3.657,4.591l3.921-1.107l2.108-2.235l6.28,1.837l1.777-0.436l6.435,1.437l2.959-0.459l2.974-2.434
		l3.333-0.274l6.779-5.402l1.287-2.107l5.52-4.833l2.159-4.594l0.813-4.583l-0.526-9.064L280.637,163.399z"/>
	<g>
		<polygon fill="#CCCCCC" stroke="#FFFFFF" stroke-width="0.5" points="100.503,349.912 100.004,347.82 97.646,347.427 
			97.698,350.207 		"/>
		<polygon fill="#CCCCCC" stroke="#FFFFFF" stroke-width="0.5" points="91.855,430.554 91.199,430.554 91.173,431.882 90.1,432.627 
			90.335,434.021 90.807,433.339 92.117,433.955 92.222,433.049 93.008,432.951 92.065,432.238 		"/>
		<polygon fill="#CCCCCC" stroke="#FFFFFF" stroke-width="0.5" points="99.481,428.285 98.853,427.151 97.831,427.053 
			96.888,427.507 97.412,428.933 94.896,427.539 94.188,429.159 96.048,428.997 101.316,430.747 101.473,429.808 98.748,429.063 		
			"/>
		<g>
			<path fill="#CCCCCC" stroke="#FFFFFF" stroke-width="0.5" d="M305.665,350.301l-3.485,0.21l-3.948-1.274l-3.581-2.908
				l-2.005-0.09l-4.226,1.001l-1.883,0.469l-0.815-1.396l-1.793-1.642l0.105-2.616l-0.963-0.807l-1.454,0.325l-3.278-0.14
				l-1.188,1.253l-1.963,0.657l-0.692,0.469l-2.31-1.765l-0.66-1.693l3.258-2.021l2.348-2.723l0.106-1.363l-1.553-0.527
				l-1.362,0.831l-1.05,0.264l-1.708-0.23l-1.471-1.731l-2.12-0.433l-1.979-1.506l-2.451,0.588l-1.786,2.444l-3.645-0.909
				l-3.668,3.074l-5.067,0.858l-0.272-3.841l-1.774-3.3l-4.258-0.441l-1.495,0.942l-2.837,2.681l0.993,4.68l-0.421,1.798
				l-3.147,2.098l-2.323-1.151l-3.03,0.094l-1.444,1.872l-2.18,0.934l-4.049-3.114l-0.617-3.478l-2.643,0.582l-2.656,6.633h-1.869
				l-1.557-1.868h-1.557l-0.623,7.785l-2.492,0.312l-4.047,3.737l-4.295-0.781l-1.595,3.218l0.272-2.065l-1.481,0.021l-0.8-1.188
				l-2.334,2.565l-0.799,2.623l-5.078,3.003l0.302,1.083l-0.165,2.104l-1.792,1.745l-2.206-0.136l-1.7,1.235l-3.773,1.699
				l-2.76,0.231l-0.005-0.002l-5.085-0.697l-3.281-3.376l-2.983-1.423l-2.579,0.084l-3.003,2.065l-4.929,1.769l-7.536-1.758
				l-3.451,2.073l-4.481,1.063l-3.563-0.652l-1.494-4.993l-1.126-0.391l-1.677-3.886l0.078-1.372l-7.495-2.025l-0.367-0.785
				l-6.342-0.229l-6.788-4.051l-2.201-0.36l-1.546-2.256l-2.018-0.719l-0.891,0.654l-0.708,1.373l0.525,0.556l-2.595,2.419
				l0.996,1.895l-1.258,0.653l-2.673-1.34l-3.956-0.392l-2.097,1.045l-0.813-0.523l-1.965,1.667l-0.708-0.36l0.315,1.83l3.145,0.719
				l0.812-0.491l0.446,1.241l0.996,0.164l-1.651,1.339l-0.707-1.11h-2.464l-0.209,1.077l1.442-0.163l0.182,1.143l0.918,0.163
				l-0.184,1.338l0.943-0.914l1.18,0.262l0.865,1.828l1.677-1.338l0.917,0.425l0.026,1.501l-1.31,0.62l0.34,1.143l2.149,0.816
				l-3.302,0.979l0.157,1.533l-1.939-0.26l-1.231,0.717l0.603,2.218l-1.441,1.239l0.891,1.859l-2.07-1.826l0.419-1.696l-1.598-0.294
				l-1.126,2.674l0.969,0.75l-0.289,1.173l0.865,1.142l-1.127-0.554l-0.864,0.88l-0.76-0.424l-0.026,1.041l-0.943-0.063
				l-0.393,1.108l-0.969-2.346l0.235-0.75l3.04-0.913l0.157-0.684l-2.097-0.456l0.079-1.174l1.65-3.653l1.756-0.946h-0.97
				l-0.183-1.599l-1.651-1.469v-3.231l0.944-1.306l-0.996,0.099l-0.812-1.045l1.021-0.261l0.183-1.567l-2.332,1.796l1.047,5.125
				l-0.838,1.306l0.367,1.077l-3.695-1.077l0.445-0.686l-1.468,0.098l-2.357,1.893l-0.917-0.783l-0.498,2.251l-1.862-0.131
				l1.337,1.208l-0.892,0.685l0.682,1.696l0.996-0.065l-2.071,2.739l1.415,1.565l-1.1,0.098l1.625,4.334l-1.913-3.683l-0.682,0.521
				l0.053-3.716l-1.022-0.064l-0.079-1.077l-0.472,0.75l-0.628-0.293l0.576,1.043l-0.917,0.033l1.284,1.206l-0.183,1.174
				l-1.311,1.01l0.734,0.651l-0.419,1.564l-1.049,0.847l-0.419-0.521l0.026,1.271l-1.809,0.358l1.206,2.801h0.865l-1.363,4.916
				l3.092-2.67l-1.153-3.679l1.547,0.846l3.538-0.26l-1.022,1.335l1.913,1.074l1.232-0.585l-1.258,2.343l1.048-0.651l0.891,0.651
				l-1.546,1.921l-3.563-1.53l-1.835,1.465l0.551,3.287l3.905,0.39l1.073-2.31l2.307-0.227l0.628-0.813l-0.314-1.823l2.097,0.098
				l1.86-1.531l0.394,0.749l-0.812,0.293l-0.08,2.214L82.6,391.37l0.315,2.148l2.175,0.292l1.073,2.31l0.131,3.153l-1.048,0.748
				l-0.551,2.924l1.022,1.725l6.656-5.753l4.298,1.233l5.005,3.543l0.734,3.021l-0.654,1.689l2.357,2.891l1.494-1.268l4.14,2.985
				l-4.192-2.239l-2.019,2.11l-0.235,3.407l0.55,2.79l1.232,1.297l-0.263,1.2l2.62-1.329l0.315-1.396l0.787-0.063l2.516-3.277
				l2.437,1.007l2.228-0.779l-0.997,1.232l-2.699-0.453l-0.681,2.758l-1.494-0.098l-1.52,1.491h-1.257l-2.386,1.654l-0.917,1.913
				l-0.418,3.209l1.782,0.03l4.717,3.272l3.25,0.681l-2.595-0.228l-4.062,2.816l-1.284,0.1l4.56,6.895l-1.729,3.14l0.891,4.495
				l-1.494,1.615l0.184,2.23l-0.759,0.97l-2.359-0.227l-0.027,2.746l1.075,0.969l0.289-2.393l1.179-0.321l2.621,0.938l0.917,1.842
				l1.389-1.39l2.542,2.197l1.336,2.938l0.813-0.711l1.048,0.485l-0.026,0.836l1.179-0.32l-2.437,1.938l1.049-0.193l0.288,2.808
				l1.048-0.096l2.254,2.58l-0.76,0.484l0.052,2.128l0.733,0.743l1.127-0.613l4.271,1.063l1.39-2.16l0.682,0.326l1.304-0.557
				l1.479,1.355l11.522-4.982l0.003-8.426l4.68-2.676l3.677,0.669l3.757,2.266l1.264-0.379l2.19,2.007l0.312,3.737l2.43,0.189
				l0.532,2.019l2.546,0.183l5.663-2.1l2.843,1.889l5.294-0.313l-0.624-2.49l4.36,0.312l2.415-2.012l1.132,1.624l2.958,5.093
				l2.215,7.128l4.909-1.557l0.696,4.98l6.54-0.312l0.934-1.868l0.157-2.201l1.026-0.182l1.884-0.999l4.095,2.448l2.803-2.806
				v-2.479l0.004-0.001l1.095-0.624l1.051,2.267l4.09,1.412l1.7,1.041l0.154,0.916l2.598-0.004l0.358-0.901l4.98-2.396l2.89,2.277
				l2.735-2.563l1.081-1.07l2.869,0.097l1.837-2.594l1.037-4.63l1.752-1.46l0.41-3.564l-1.174-2.953l1.18-1.738l2.403-1.423
				l3.115,1.407l0.594-1.278l-1.257-1.869l-0.151-3.163l-0.619-1.066l-2.016-0.695l-2.228,0.787l-1.984,0.835l-1.172-0.396
				l-1.847-1.568l-2.494-1.478l-0.463-1.44l-3.408,2.556l-2.149-1.775l0.069-4.276l2.656-2.304l0.999-2.558l-0.494-0.307
				l-1.313-3.247l1.28-2.013l-0.595-2.471l0.807-7.61l2.012-0.892l0.421-1.703l-2.003-1.358l-0.963-1.965l0.142-0.929l-1.216-1.219
				l-5.355-1.129l-0.727-1.097l0.988-1.903l1.56-0.353l1.754-1.549l3.228-3.332l-0.482-2.217l1.68-2.372l4.243-1.42l2.869-3.725
				l3.308,1.628l1.205-0.585l1.178,0.664l4.591,0.908l-3.387-5.236l2.86-6.675l0.506-0.305l1.635,1.745l1.376-0.19l2.529-3.085
				l0.61-0.624l1.062,0.376l0.42,0.628l5.692,1.736l0.365-0.566l0.445-3.227l1.129-0.343l1.665-3.041l1.179,1.968l3.232,1.844
				l2.487,4.914l2.189-0.18l2.435,0.051l0.924-1.028l3.987-0.779l2.838-3.889l-0.793-2.908l-1.312-0.609l0.052-1.331l0.832-1.562
				l3.151-5.657l3.54-2.742l0.784-1.241l2.797-0.807l3.284-3.243l0.616-0.28l2.272-2.608l2.141,0.246l2.2-2.154L305.665,350.301z"/>
			<polygon fill="#CCCCCC" stroke="#FFFFFF" stroke-width="0.5" points="98.799,420.959 96.441,419.207 97.436,417.779 
				96.572,416.352 96.729,414.535 95.629,414.859 95.969,412.848 93.742,411.613 94.554,410.736 93.533,409.374 93.429,406.126 
				91.961,405.443 93.481,404.468 93.534,403.331 92.564,400.73 91.227,400.113 87.507,403.883 89.158,407.262 88.843,412.457 
				89.734,414.502 88.659,417.391 90.022,417.001 89.394,420.342 91.832,420.73 91.281,422.613 93.01,424.136 93.979,423.034 
				95.893,423.066 95.523,423.813 96.729,423.813 96.887,424.979 98.354,425.466 97.777,424.104 99.062,423.1 			"/>
		</g>
	</g>
	<g>
		<path fill="#CCCCCC" stroke="#FFFFFF" stroke-width="0.5" d="M235.139,471.05l-2.735,2.563l-2.89-2.277l-4.98,2.396l-0.358,0.9
			l-2.598,0.004l-0.154-0.916l-1.7-1.041l-4.09-1.412l-1.051-2.267l-1.095,0.624v2.48l-2.803,2.804l-4.096-2.448l-1.883,0.999
			l-1.027,0.182l-0.157,2.201l-0.934,1.868l-6.54,0.313l-0.696-4.982l-4.909,1.557l-2.215-7.128l-2.958-5.093l-1.133-1.624
			l-2.414,2.012l-4.36-0.312l0.624,2.491l-5.294,0.312l-2.843-1.889l-5.663,2.1l-2.546-0.183l-0.532-2.018l-2.43-0.19l-0.312-3.737
			l-2.19-2.007l-1.263,0.379l-3.757-2.265l-3.678-0.669l-4.679,2.675l-0.003,8.426l-11.523,4.983l-1.479-1.356l-1.304,0.557
			l0.89,0.318l-0.315,1.322l-1.703,1.87l-2.883-1.129l-1.651,1.226l-5.712,0.807l-0.708,0.84l-1.153-1l-4.9,0.354l-0.733,0.902
			l1.886,1.481l0.026,1.097l4.534,0.482l-0.184,6.539l5.163,0.29l1.363-1.224l3.25,0.998l2.148-0.772l2.804,0.29l1.651-1.643
			l4.167-0.129l-2.91,1.417l-0.079,2.094l-0.916,1.126l-5.294-0.227l-3.197,1.224l-1.441,1.48l8.752,4.987l0.682,2.896l-0.562,2.129
			l-0.827-1.872l-2.096-1.735l-4.481-1.191l-4.613,0.708l-1.86-0.933l-1.049,1.609l0.708,4.308l-3.066,4.242l-2.489,2.12
			l-1.153-0.61l-1.834,1.188l-3.329,3.564l-4.297,2.44l1.258,1.026l-1.049,1.894l0.734,1.637l1.231-0.577l1.101,2.021l1.704,0.737
			l0.576-1.059l0.341,0.994l0.917,0.063l1.153-1.091l4.901,0.032l0.418-0.771l1.232,0.963l0.786-0.931l1.468,0.225l0.288-0.866
			l2.044,1.7l1.389-0.032l-1.153,1.059l0.969,0.578l0.315,3.271l-2.464-3.047l-1.598-0.48l-1.441,0.416l0.053,1.219l-0.551-0.159
			l-1.52,3.56l-0.235-1.25l-2.542-0.321l-2.228,2.084l-2.201-0.93l-1.783,1.153l-0.235,1.57l-1.363-1.282l-5.109,9.805l3.827,0.501
			l-4.484,0.238l-1.468,1.407l-0.445,2.337l0.76,2.399l3.458,2.368l-4.69-1.567l-1.756,4.445l-0.734,5.273l-3.118-0.03l-0.734,1.31
			l1.756-0.032l0.288,0.704l-1.599,2.172l0.551,0.99l-1.364,1.373l-1.335-2.843l-1.101,2.077l1.363,1.116l0.262,1.726l1.572,0.798
			l4.088-0.861l-0.682,2.556l-1.624,0.543l0.996,0.479l-0.289,1.34l2.175,1.244l3.616,5.808l4.063,0.731l-0.655,1.181l-2.096,0.671
			l2.07,0.954l-1.441,2.296l-2.097,1.4l0.576,1.753l-2.227,0.064l-0.104-1.852l-0.97,0.032l1.547-2.263l-0.997-1.529l-1.127,1.182
			l0.655-2.267l-2.228,2.742l-0.209-1.944l-0.734,0.574l-1.231-0.415l0.708-2.646l-0.891,1.021l-1.205-0.224l0.13-2.456l0.76-0.225
			l0.682-2.326l-0.052-2.556l-1.075,1.276h-0.97l0.603,0.767l-0.917,1.626l-1.285,0.064l-0.079-1.244l-1.362-0.414l-1.048,0.829
			l-0.708-1.914l-1.468,0.894l0.263,1.3l-0.76-0.312l-0.813,1.913l2.202,2.424l-1.651,0.128l-0.371,1.127l-0.029,0.161l1.001,0.657
			l0.603,2.996l2.07-0.988l1.468,2.07l1.284-1.21l-1.258-0.895l1.363-1.052l-1.206-2.229l1.363,0.955l0.131-0.731l1.336,0.031
			l1.153,2.167l-1.258,0.957l1.651,0.415l0.262,2.038l2.621-0.828l0.892,1.115l0.078,1.495l-4.9,3.153l1.86,0.414l-0.943,2.038
			l-1.887,0.956l-0.812-1.688l-0.943,0.668l0.288-1.399l-1.624,2.547l2.436,2.515l-1.493,1.05l0.183,0.732l1.912-0.254l0.236,1.622
			l1.362,0.159l2.49-1.052l-0.393-0.923l0.708-0.856l-0.76-0.511l0.891-1.433l-1.415-0.604l-0.079-0.767l0.865-0.7l0.314-2.769
			l0.918,3.246l1.153,0.765l-0.524,2.229l0.786,1.209l-0.656,0.73l1.467,1.877l-0.445,1.272h-0.838l-0.288,1.972l1.284,0.352
			l-0.629,1.305l1.599,2.892l-1.808,0.699l-2.987,4.252l0.708,2.167l1.991-0.128l0.079,1.334l-1.153,0.444l0.209,1.556l-1.625,1.556
			l2.333,0.857l2.41-1.841l1.573,1.079l1.704-0.539l0.734,1.648l1.44-1.109l2.464,0.254l2.673,3.174l1.179,2.919l2.384,0.127
			l-0.235,2.664l3.014,2.22l2.803,0.856l-3.537,0.158l-3.25-1.396l-0.313-0.888l-2.202-0.224l-0.131,1.396l1.311,0.38l-0.997,1.332
			l-1.572-1.363l-3.932-0.507l-1.624-1.205l0.026-0.889l-0.97,0.381l-1.126-1.269l2.568-3.585l-1.127-0.666l-0.55,0.95l-0.498-0.603
			l-1.651,1.903l-1.808-3.49l-1.048,0.951l1.048,0.189l0.734,1.776l-0.472,0.413l-1.127-0.921l0.702,2.41l-1.646,1.968l1.075,0.95
			l1.389-0.92l0.314-1.235l0.864-0.032l-0.053,0.824l0.734,0.063l-0.498,1.84l1.049-0.255l0.812,2.441l1.18-1.174l0.446,2.885
			l2.017-0.981l0.865,0.538l-0.445,1.144l-2.882,1.457l0.183,0.888l-6.735-4.057l-1.022,1.488l-0.262-1.84l-1.31-0.634l0.104-2.885
			l-2.541-1.427l0.708-0.984L89.444,622l1.547-1.301l-1.757-1.396l-0.995-3.239l-1.259,0.128l0.315-0.729l-1.048-0.984l-1.311,0.54
			l-1.047,5.145l-0.682,1.108l-0.576-0.443l0.157,2.441l-0.76,0.698l0.445,4.188l1.18,1.142l1.179,0.285l0.446-0.633l0.419,0.567
			l-1.231,1.017l-0.105,2.945l3.171,1.175l-0.865,1.015l0.943,1.14l1.992-0.694l2.855,1.426l2.202,0.095l-0.917,2.344l0.786,0.791
			l1.441-0.693l-0.026-0.951l1.494-0.253l-0.209-1.203l2.28,0.791l0.027,1.584l2.043-0.634l0.314,0.822l-2.202,1.68l1.913,0.158
			l0.786,1.359l-1.336,0.823l0.917,2.059l-0.997,0.728l0.735,0.949l0.629-0.254l-0.158,1.646l-0.367,0.254l-0.839,0.854l2.622,2.436
			v-0.979l1.284,0.282l1.126-0.916l0.708,2.813l-1.075,1.644l-1.677-0.916l1.075,2.436l-2.385,0.411l1.258,2.212l-0.97-0.095
			l0.21,1.012l-0.917-0.854l-0.314,0.663l0.603,1.075l3.171-2.021l1.441,0.634l0.603,3.063l-1.389,1.676l0.655,0.536l-0.262,2.211
			l0.865,0.314l0.341-1.01l1.441-0.255l1.494-2.209l4.271,0.853l-0.524-2.368l0.787-1.011l-0.603-0.507l1.703-1.073l0.053-2.339
			l-0.838-0.729l0.942-1.171l-0.497-0.566l0.602-0.79l0.551,0.568l0.55-1.044l0.969,0.253l0.524-1.484l1.363-0.478l0.812,0.823
			l0.079-0.948l2.333-1.424l2.358-0.284l2.201-3.29l-0.786-1.552l2.542-1.551l-0.682-2.627l1.048-0.665l-0.55-0.634l0.603-9.408
			l1.546-2.728l-0.838,5.166l1.022,0.919l-0.235,1.174l0.864,1.014l-0.419,1.71l0.656,0.507l-1.049,3.928l0.943,3.83l-1.021,1.232
			l2.043,0.063l-0.289,1.394l1.284,0.917l2.542-0.348l2.595,1.581l1.205,1.803l0.157-1.454l-1.521-2.467l4.718,0.188l1.65,0.79
			l0.84-1.044l-0.97-2.31l0.576-0.823l1.389,1.583l2.044-0.823l-1.494-2.088l0.367-1.552l0.944-0.506l-1.651-2.027l1.153-1.298
			l1.546,0.38l-0.025-2.471l1.598,0.475l0.131-1.487l-1.625,0.316l-0.943-0.696l1.075-0.95l0.655-2.566l1.022-0.444l-1.39-0.759
			l0.027-0.952l2.279-0.188l2.751-1.27l1.783-2.947l2.935-1.078l2.935-3.648l1.31,1.207l3.852-0.128l4.246-7.237l1.546-0.35
			l1.729,3.302l0.76-1.142l1.966,1.236l1.127-2.189l2.043-0.254l0.629,4.158l1.152,0.539l-1.126,0.351l-1.703,4.917l-2.673-0.254
			l-0.76-0.795l0.733-2.409l-0.498-2.762l-0.969,0.794l-0.682-0.539l-2.227,1.967l0.394,1.649l-1.101,1.078l-0.419,2.475
			l-2.673,0.667l-2.542,2.534l-0.052,3.582l-1.232,0.38l-0.943-1.076l-0.34,1.869l-2.621,2.407l-0.472,1.934l0.943,0.633
			l-0.078,1.234l1.467,0.792l2.935-0.35l0.498,0.664l0.838-1.739l2.517,1.709l-0.08-2.597l2.385,2.091l-0.209,0.791l1.179,0.38
			l0.026-0.729l0.969-0.031l2.752,2.626l-1.415,1.932l3.04,1.233l-0.341,0.854l1.18,0.031l0.708,0.979l-1.1-0.03l-0.027,0.634
			l2.202,0.854l1.126-0.823l-0.262-1.012l-1.677-0.949l1.677-0.188l-1.127-1.014l1.651-0.821l0.629,0.663l0.471-1.613l1.337,1.298
			l0.838-0.791l0.892,0.476l0.236-0.918l-1.127-1.426l1.049-0.728l1.415,0.603l0.34-1.68l2.07,0.888l-0.628-2.186l1.258-0.442
			l-0.446-2.279l-1.362,0.315l0.629-0.57l-2.253-0.379l-1.965,0.569l0.183-1.076l2.201-0.381l0.393-1.362l-1.31,0.793l-0.236-0.951
			l-2.358,0.189l-0.052-0.664l3.957-0.571l0.918,0.919l1.466-0.634l0.996,1.3l1.231-1.68l0.394,1.269l2.437,0.791l0.052-0.98
			l1.704-1.427l-0.813-4.247l-2.778-0.604l-0.838-0.92l0.471-0.442l0.917,0.95l0.341-0.822l1.179,0.665l0.025-0.889l-1.545-0.508
			l0.393-1.998l-1.467,0.127l0.472,1.078l-0.944-0.096l0.053-0.823l-1.205,0.823l0.235-1.363l-1.834-0.031l0.445-0.697l-0.812-1.332
			l-3.276-2.285l-1.546-3.396l2.385-1.872l0.393-1.238l-3.433-1.237l1.939,0.096l0.787-2.001l3.092-2.002l-3.354-0.032l-0.918-1.461
			l-2.227-1.177l2.332,0.096l1.285,1.334l3.353-1.334l0.42-1.366l0.471,1.366l2.333-0.921l1.781,0.539l0.604-0.763l-0.185-3.053
			l2.542-0.7l0.786,4.007l1.651,0.255l-1.599,2.161l-0.184,1.62l3.118,0.223l0.131,1.304l1.363,1.43l-1.363,0.729l1.285,0.382
			l0.026,1.588l0.995-1.08l0.682,1.333l-0.629,0.827l1.808,0.603l-1.913-0.063l-0.341,1.428l-1.048,0.569l-0.629-0.476l0.236,0.921
			l-1.468,1.271l0.812-0.097l-0.366,1.523l1.022-0.952v0.824l1.283,0.063l-2.358,0.889l-0.053,1.587l1.101,0.35l-1.179,1.174
			l2.778,4.09l-0.446-2.154l1.206-0.38l2.411,0.981l0.969,1.616l1.992,0.285l-0.419-1.143l-1.022-0.031l1.205-1.458l-1.31-0.508
			l0.655-0.508l-1.311-2.22l1.546-0.667l-1.389-0.35l0.42-1.016l-1.311-1.27h0.733l0.419-1.304v0.826l1.546,0.552l-0.708-1.439
			l2.253-3.048l-0.183-1.017l0.603-0.158l-0.052,0.729l1.756,1.078l-0.341,0.668l2.097,1.269l2.955-0.567l0.262-1.111h1.992
			l-0.97-4.54l1.337-2.604l0.891,0.063l0.289-5.879l0.839-0.189l-1.337-1.336l-2.306,0.825l0.13,0.766l-1.756-0.699l0.944-0.859
			l-3.17,0.954l-0.105,0.286l-0.917,1.525l-2.542,1.777l-2.306-0.794l-0.026,1.113l-1.153-1.431l0.943-1.306l-2.883-0.667
			l-1.572-3.751l-1.441-0.541l1.913-0.797l0.393-0.188l0.499-0.796l-2.438-1.878l1.966-0.541l0.131-2.988l0.708,0.668l-0.158,2.448
			l1.521,2.26l2.07-0.224l-0.446,0.572l0.944,1.209l0.943-1.368l3.197-1.524l-0.289-1.434l2.018-0.764l1.782-2.101l-1.127-5.189
			l1.415,2.038l0.053,2.896l2.961-1.654l1.362,2.962l2.779,0.094l-2.232-8.218l-1.741-1.326l-3.555-3.792l-1.091-1.043l-0.193-2.896
			l-6.553-6.444l-0.905-9.2l-2.654-2.981l0.799-2.255l0.004-0.002l0.229-0.204l2.212-2.3l-0.549-2.862l1.154-3.142l3.695-3.561
			l0.455-4l-1.629-0.427l-0.689-1.924l0.684-3.334l-1.267-2.267l-0.422-2.901l-2.767-1.37l-0.17-2.312l5.211-14.382l0.891-0.796
			l0.154-1.912l0.781-4.813l4.929-4.729l1.655-4.067l0.649-0.472l2.011,0.438l1.823-1.148l1.459-0.008l3.099-1.881l2.042-4.612
			l2.321-1.511l1.285-5.003L235.139,471.05z M132.657,500.615l-0.682,0.644l-0.425-0.962L132.657,500.615z"/>
		<polygon fill="#CCCCCC" stroke="#FFFFFF" stroke-width="0.5" points="66.358,665.813 63.03,666.698 61.746,665.024 
			60.908,666.099 61.144,666.413 59.44,667.992 60.384,667.771 60.2,668.875 62.663,669.065 63.135,670.169 63.109,668.592 
			64.13,668.529 64.34,670.138 65.022,668.938 66.856,670.107 66.489,668.908 		"/>
		<polygon fill="#CCCCCC" stroke="#FFFFFF" stroke-width="0.5" points="59.862,633.006 60.464,633.577 59.809,634.179 
			59.809,637.126 60.776,637 61.327,635.701 61.93,636.682 63.738,636.176 64.105,635.003 63.686,633.894 62.978,634.528 
			63.214,632.531 61.774,632.975 60.936,631.706 61.722,629.582 60.674,629.836 60.831,629.043 58.971,629.488 59.573,630.915 
			59.049,633.45 		"/>
		<polygon fill="#CCCCCC" stroke="#FFFFFF" stroke-width="0.5" points="93.637,643.016 91.226,641.305 90.545,639.533 
			89.628,639.85 90.257,638.741 87.82,639.533 86.483,638.012 87.244,637.347 86.511,636.269 80.745,634.464 80.614,636.937 
			81.61,637.474 80.117,640.388 79.279,639.722 79.2,640.926 77.968,641.338 79.069,642.541 77.182,642.698 76.815,643.742 
			77.549,644.566 76.421,645.104 75.924,642.826 74.194,646.18 68.953,649.06 69.896,650.767 69.24,650.2 68.114,650.643 
			66.385,653.741 69.084,658.295 71.417,657.505 71.706,658.295 70.684,658.736 71.077,659.338 70.134,660.569 71.784,660.569 
			71.653,659.842 72.414,659.62 73.331,661.232 75.584,661.295 78.231,660.316 77.576,659.051 78.807,659.588 79.725,658.703 
			80.327,659.367 81.219,658.166 82.843,658.293 82.974,656.174 84.468,656.965 86.04,656.143 85.227,655.163 86.118,654.784 
			86.93,655.479 86.563,654.278 87.716,655.132 87.48,653.329 88.869,655.069 88.503,655.796 89.734,655.827 89.708,654.151 
			92.512,650.989 91.804,649.344 93.115,647.667 91.909,647.318 91.935,646.464 93.43,646.053 94.006,646.907 93.954,645.294 
			93.218,644.821 94.109,644.156 		"/>
		<polygon fill="#CCCCCC" stroke="#FFFFFF" stroke-width="0.5" points="122.62,680.677 119.266,678.531 118.612,680.077 
			117.72,679.982 119.528,682.032 117.458,684.144 117.405,685.751 118.113,687.39 119.476,686.602 119.345,688.209 
			120.341,688.681 121.231,687.642 121.1,685.027 122.202,685.405 122.464,684.334 121.153,684.301 120.079,681.655 
			122.071,681.402 		"/>
		<polygon fill="#CCCCCC" stroke="#FFFFFF" stroke-width="0.5" points="115.361,675.819 112.61,675.283 112.086,676.008 
			111.614,674.62 110.199,674.683 111.43,676.354 110.539,676.45 110.276,677.207 111.246,677.207 110.12,677.87 110.513,679.131 
			109.596,679.541 111.195,679.951 111.142,681.118 113.71,681.654 112.374,680.108 114.365,679.604 114.261,680.518 
			116.147,680.487 114.915,678.563 116.724,678.563 116.121,676.828 		"/>
		<polygon fill="#CCCCCC" stroke="#FFFFFF" stroke-width="0.5" points="112.897,681.969 112.295,682.979 111.797,681.875 
			110.408,682.159 108.862,680.551 105.587,683.042 105.508,685.501 106.347,687.454 107.736,687.517 112.4,684.838 
			112.636,683.293 113.763,682.693 114.915,684.712 114.968,683.041 116.199,684.428 116.67,682.569 115.569,682.916 		"/>
		<polygon fill="#CCCCCC" stroke="#FFFFFF" stroke-width="0.5" points="83.522,601.867 82.762,603.68 79.958,602.789 
			79.486,604.601 82.788,605.618 84.36,603.743 87.505,604.093 87.872,604.951 89.156,604.38 90.544,606.287 88.841,607.366 
			89.286,608.034 91.042,608.574 91.225,607.621 92.72,607.397 92.771,603.71 91.697,604.156 91.723,602.885 88.604,603.202 
			87.635,602.376 88.657,601.897 87.582,601.167 88.735,600.977 88.788,599.737 91.199,599.896 91.173,598.91 89.732,597.669 
			87.478,597.86 86.167,596.205 84.596,597.255 86.666,600.214 85.643,600.851 84.465,600.246 84.256,601.869 84.964,602.504 
			83.863,602.887 		"/>
		<polygon fill="#CCCCCC" stroke="#FFFFFF" stroke-width="0.5" points="50.242,619.783 52.365,619.18 51.552,617.974 52.6,617.816 
			51.342,615.911 51.395,614.45 56.426,613.784 56.767,612.45 57.92,612.291 57.657,609.463 55.64,609.781 54.671,611.687 
			53.439,611.433 53.648,612.068 52.442,612.798 48.459,612.194 48.879,613.401 48.066,613.783 47.935,613.242 47.542,614.005 
			48.119,614.703 47.385,617.974 		"/>
		<polygon fill="#CCCCCC" stroke="#FFFFFF" stroke-width="0.5" points="55.378,619.688 54.408,617.306 54.251,619.116 
			53.02,619.053 52.915,621.052 51.945,620.481 52.207,619.878 50.111,620.322 49.901,623.272 50.504,624.922 51.63,624.129 
			51.579,625.238 52.417,625.746 53.701,624.729 53.596,626.285 54.565,626.602 56.06,625.936 56.086,624.857 57.579,623.842 
			57.737,622.795 58.811,623.081 59.283,621.875 		"/>
		<polygon fill="#CCCCCC" stroke="#FFFFFF" stroke-width="0.5" points="71.52,615.721 69.816,613.498 68.087,614.037 
			66.278,613.115 65.938,614.323 65.282,614.354 65.728,615.784 64.863,617.911 66.907,616.705 67.011,617.721 67.667,617.435 
			67.299,619.309 68.478,619.15 69.16,619.911 70,618.576 71.415,618.449 72.044,621.465 74.821,620.894 75.11,619.117 
			73.302,615.053 		"/>
		<polygon fill="#CCCCCC" stroke="#FFFFFF" stroke-width="0.5" points="72.7,624.827 71.73,625.144 71.101,626.698 70.315,626.127 
			70,627.08 68.821,627.174 69.083,628.19 70.079,627.556 70.655,628.284 69.608,629.902 70.316,631.519 72.359,630.948 
			72.831,629.997 74.508,630.566 75.137,629.521 76.657,629.363 76.945,628.157 75.425,628.695 75.74,627.174 		"/>
		<polygon fill="#CCCCCC" stroke="#FFFFFF" stroke-width="0.5" points="61.562,579.232 62.611,580.283 63.475,579.9 63.658,579.55 
			65.231,579.294 65.231,580.888 67.588,581.844 67.615,580.282 69.136,580.378 68.323,578.849 69.554,578.625 67.772,576.872 
			68.087,575.374 69.266,575.342 69.581,572.247 73.407,570.589 68.769,570.813 68.664,571.898 65.86,574.864 62.663,575.438 
			61.981,577.702 63.553,578.626 63.239,579.486 		"/>
		<polygon fill="#CCCCCC" stroke="#FFFFFF" stroke-width="0.5" points="65.703,603.392 65.073,604.347 63.501,604.633 
			66.541,608.479 66.909,610.544 69.11,610.193 69.608,608.795 68.691,607.144 69.477,605.999 70.603,606.508 72.202,605.269 
			70.472,604.157 70.446,603.362 72.281,603.425 72.883,602.63 71.494,600.817 71.023,601.581 68.822,600.69 68.245,601.071 
			68.402,602.852 69.293,603.582 68.795,604.504 		"/>
		<polygon fill="#CCCCCC" stroke="#FFFFFF" stroke-width="0.5" points="5.327,623.463 3.99,622.734 5.274,621.687 2.182,622.257 
			2.235,623.494 0.164,626.412 1.239,627.427 0.008,628.03 0.951,629.678 2.523,630.248 2.444,628.567 4.069,627.871 3.519,626.285 
			5.406,625.81 5.642,623.747 7.502,623.112 6.481,622.065 		"/>
		<polygon fill="#CCCCCC" stroke="#FFFFFF" stroke-width="0.5" points="55.85,602.853 61.038,603.393 62.086,605.238 
			61.903,603.456 62.663,603.235 62.873,603.997 64.313,603.552 63.973,602.758 65.939,602.854 65.335,601.423 67.248,600.501 
			65.807,599.006 67.326,597.607 65.911,597.383 66.619,596.175 65.388,596.461 65.493,595.156 63.396,594.296 63.79,596.461 
			63.213,597.415 62.191,597.606 61.773,596.493 61.117,597.701 59.308,597.351 57.107,601.548 54.985,601.581 56.373,602.471 		"/>
		<polygon fill="#CCCCCC" stroke="#FFFFFF" stroke-width="0.5" points="67.223,587.165 73.145,587.452 73.774,585.572 70,584.203 		
			"/>
		<polygon fill="#CCCCCC" stroke="#FFFFFF" stroke-width="0.5" points="130.875,665.781 128.805,665.055 126.996,661.296 
			127.075,658.483 126,657.282 122.619,655.45 118.557,657.41 118.505,662.527 119.212,663.192 118.714,664.076 120.68,664.487 
			123.51,668.087 125.056,667.487 127.546,668.75 127.362,666.667 128.542,668.15 131.319,668.655 129.93,666.793 		"/>
		<polygon fill="#CCCCCC" stroke="#FFFFFF" stroke-width="0.5" points="226.285,600.114 226.418,600.308 226.287,596.873 
			224.583,595.187 221.884,595.123 222.146,593.404 221.36,592.769 218.792,595.345 218.845,597.35 224.19,598.559 224.688,599.258 
			224.4,596.555 225.343,596.203 		"/>
		<polygon fill="#CCCCCC" stroke="#FFFFFF" stroke-width="0.5" points="221.885,631.736 223.038,633.89 224.479,633.796 
			226.864,634.814 228.41,634.21 228.567,633.356 226.707,632.119 227.022,629.965 227.86,629.616 227.677,626.729 228.411,626 
			227.389,626.126 227.938,625.397 226.392,625.016 225.607,623.779 225.895,621.907 224.611,622.257 223.955,621.179 
			224.532,620.417 225.371,621.083 225.528,621.368 226.839,621.685 226.603,619.687 222.095,617.75 222.777,620.003 
			223.904,620.162 223.72,622.7 225.161,623.397 223.379,623.714 222.881,625.173 220.601,626.664 220.025,628.091 220.68,629.041 
			219.343,630.562 		"/>
		<polygon fill="#CCCCCC" stroke="#FFFFFF" stroke-width="0.5" points="226.941,645.928 227.701,644.758 224.714,643.271 
			226.103,642.763 224.269,640.515 223.719,638.362 222.015,638.393 219.473,640.135 218.058,640.009 220.232,641.782 
			221.491,641.37 220.757,642.542 222.251,643.238 221.648,644.124 223.482,643.935 223.457,644.568 225.107,644.853 
			224.242,645.423 		"/>
		<polygon fill="#CCCCCC" stroke="#FFFFFF" stroke-width="0.5" points="131.53,657.884 130.22,660.475 131.608,661.297 
			131.635,659.401 132.709,657.947 135.251,657.851 135.802,655.891 138.108,657.124 139.654,657.028 139.732,656.207 
			139.024,656.207 138.867,654.848 138.055,654.975 138.264,653.741 137.164,654.563 135.749,653.552 137.531,653.456 
			137.819,652.477 136.693,652.192 136.613,650.8 132.368,652.033 130.14,654.595 130.481,655.955 128.777,658.198 		"/>
		<polygon fill="#CCCCCC" stroke="#FFFFFF" stroke-width="0.5" points="81.264,577.396 81.503,576.078 80.979,575.439 
			79.59,576.333 79.196,575.28 77.231,575.631 76.235,574.388 75.188,574.612 72.907,575.983 73.667,577.769 73.774,578.85 
			73.905,579.551 74.874,579.264 74.325,580.029 76.211,580.412 76.631,579.806 77.469,580.858 79.25,580.7 80.22,581.305 
			79.8,582.961 80.717,583.151 81.582,584.745 82.997,584.872 83.966,582.961 82.814,582.228 82.42,579.806 81.005,578.818 
			81.234,577.556 81.215,577.543 		"/>
		<polygon fill="#CCCCCC" stroke="#FFFFFF" stroke-width="0.5" points="194.867,646.72 195.889,646.878 196.597,645.96 
			198.038,646.277 198.431,645.58 199.008,646.277 200.134,645.453 198.745,643.492 195.862,643.269 196.019,642.478 
			197.225,642.858 195.705,641.085 197.539,640.293 197.068,639.375 195.547,639.216 193.32,642.098 195.364,643.143 
			194.946,643.681 195.601,644.124 193.924,645.168 		"/>
		<polygon fill="#CCCCCC" stroke="#FFFFFF" stroke-width="0.5" points="220.338,602.439 221.256,600.532 222.828,600.149 
			222.487,599.578 220.994,599.672 220.051,598.845 218.295,599.514 217.613,600.691 218.557,601.422 218.085,601.867 		"/>
		<polygon fill="#CCCCCC" stroke="#FFFFFF" stroke-width="0.5" points="228.043,649.819 228.357,648.808 227.283,649.376 
			227.571,650.263 226.418,652.477 227.911,652.223 226.444,653.868 226.706,654.406 227.571,653.931 227.676,654.752 
			228.383,654.784 229.353,649.757 228.645,650.231 		"/>
		<polygon fill="#CCCCCC" stroke="#FFFFFF" stroke-width="0.5" points="201.471,649.693 200.055,647.415 200.004,648.555 
			199.321,648.144 198.876,649.156 197.959,649.125 198.614,648.303 196.937,648.46 195.181,647.29 195.574,649.852 
			194.762,650.328 196.963,649.821 197.959,650.423 197.75,651.056 195.89,650.834 197.096,652.1 198.772,652.1 198.222,653.839 
			198.721,654.535 201.42,652.826 202.415,653.301 203.176,652.353 203.071,650.296 		"/>
		<polygon fill="#CCCCCC" stroke="#FFFFFF" stroke-width="0.5" points="144.082,679.163 143.296,678.279 144.004,677.081 
			142.116,676.545 140.256,677.397 140.073,678.218 138.894,678.531 138.92,681.055 137.925,681.401 139.078,681.937 
			138.082,682.82 138.79,684.206 139.969,682.441 141.07,684.3 142.852,683.607 143.638,684.206 144.66,683.293 144.791,680.015 
			143.583,680.361 		"/>
		<polygon fill="#CCCCCC" stroke="#FFFFFF" stroke-width="0.5" points="147.201,654.374 145.969,656.872 144.161,656.809 
			143.558,655.482 142.903,656.082 142.431,655.387 142.274,656.304 141.278,655.039 140.517,655.829 140.466,654.945 
			139.601,654.534 139.287,655.165 140.23,656.524 139.444,658.896 140.125,659.463 141.461,658.863 141.776,660.474 
			143.558,661.169 145.183,660.38 145.576,659.21 147.385,659.557 146.729,657.598 147.751,655.481 		"/>
		<polygon fill="#CCCCCC" stroke="#FFFFFF" stroke-width="0.5" points="139.785,665.624 139.732,664.677 140.256,666.129 
			141.331,666.099 141.095,663.761 142.589,663.603 142.693,662.087 141.016,663.002 140.308,661.55 138.867,661.959 
			138.736,661.297 138.055,662.149 136.561,660.539 135.198,661.835 135.329,662.876 134.098,663.382 132.499,661.96 
			131.111,663.225 128.936,663.099 131.661,664.078 132.867,665.468 134.308,664.078 136.169,664.205 137.374,667.331 
			138.685,666.131 		"/>
		<polygon fill="#CCCCCC" stroke="#FFFFFF" stroke-width="0.5" points="176.708,672.727 175.266,673.042 175.24,674.21 
			174.323,674.305 173.615,677.081 175.083,676.419 176.76,677.272 175.947,676.072 177.048,675.789 		"/>
		<polygon fill="#CCCCCC" stroke="#FFFFFF" stroke-width="0.5" points="152.233,662.749 149.455,662.749 149.455,662.75 
			148.302,664.108 148.564,666.223 149.114,665.844 149.926,667.108 153.936,664.518 153.806,663.602 		"/>
		<polygon fill="#CCCCCC" stroke="#FFFFFF" stroke-width="0.5" points="172.672,644.946 171.283,645.802 169.265,645.516 
			165.78,647.541 164.444,646.907 164.025,645.483 163.238,645.546 163.081,647.16 161.089,647.825 162.347,649.564 
			161.691,650.957 163.316,650.324 163.237,651.399 165.752,653.519 166.329,652.285 167.797,652.57 168.006,651.81 
			172.041,652.442 174.505,647.16 		"/>
		<polygon fill="#CCCCCC" stroke="#FFFFFF" stroke-width="0.5" points="158.259,655.607 159.438,652.477 158.52,649.946 
			157.551,649.124 157.158,649.883 156.556,648.934 154.485,649.504 155.586,650.168 155.927,653.362 156.739,654.152 
			157.342,653.837 157.08,652.572 158.128,652.824 		"/>
		<polygon fill="#CCCCCC" stroke="#FFFFFF" stroke-width="0.5" points="162.005,662.938 160.118,661.202 160.434,660.633 
			159.543,660.158 156.634,661.423 156.687,659.463 155.141,658.01 154.931,658.896 153.306,658.896 153.935,659.527 
			153.044,659.59 153.044,660.728 150.921,660.413 153.044,661.646 153.752,660.916 155.088,661.771 155.428,662.56 
			154.013,662.874 155.166,663.538 157.21,662.591 157.34,663.318 155.768,664.423 156.187,666.254 157.838,663.476 159.856,662.97 
			158.153,662.686 158.703,661.802 		"/>
	</g>
	<g>
		<polygon fill="#CCCCCC" stroke="#FFFFFF" stroke-width="0.5" points="348.481,577.192 346.621,575.597 343.947,577.033 
			347.065,579.328 347.642,580.604 348.271,580.347 348.742,581.527 349.633,581.527 350.132,580.444 348.193,578.818 		"/>
		<polygon fill="#CCCCCC" stroke="#FFFFFF" stroke-width="0.5" points="611.292,326.016 611.213,325.853 611.108,325.919 
			611.134,326.181 		"/>
		<polygon fill="#CCCCCC" stroke="#FFFFFF" stroke-width="0.5" points="522.043,294.501 521.086,292.74 522.139,291.279 
			521.199,290.999 520.291,290.221 519.525,291.082 515.063,291.702 511.014,293.784 510.264,293.304 511.683,299.085 
			517.979,301.54 518.729,299.641 522.249,297.781 521.309,297.101 		"/>
		<polygon fill="#CCCCCC" stroke="#FFFFFF" stroke-width="0.5" points="611.815,326.541 611.5,326.868 611.659,327.064 612,326.836 
					"/>
		<path fill="#CCCCCC" stroke="#FFFFFF" stroke-width="0.5" d="M396.124,466.57l-1.207-3.743l-1.179-1.065l-1.23,0.29l-0.919,2.292
			l-3.063,3.324l-0.055,1.321l-4.166,2.483l-0.233,1.228l-0.815,0.258l-2.539-1l-0.263-2.129l-2.333,0.612l1.362-1.902l2.255-0.193
			l-2.597-0.937l-1.679,1.161l-0.994-1.646l0.655-2.323l3.459-1.354l-0.184-1.451l1.31-1.646l0.079-0.971l-3.012-2.485l-0.475-6.012
			l-1.391-0.613l-0.839-1.584l1.389-2.23v-2.296l-1.229-1.456l0.812-2.492l-0.681-1.585l1.283-7.967l4.585-8.232l-0.236-6.293
			l1.784-2.984l-0.865-0.778l-0.288-4.61l-2.7-3.639l0.028-4.583l2.383-5.659l1.183-0.976l1.31,0.065l1.259-2.408l-0.551-2.571
			l0.522-1.432l-0.917-2.833l1.048-1.107l-3.015-7.658L381.5,372.9l-1.23-4.305l0.498-6.887l-1.18-3.951l1.048-1.862l-0.971-4.183
			l0.683-0.523l-0.185-2.517l1.6-0.36l-5.239-5.233l0.367-2.012l-4.271,0.714l-1.867,2.18l-2.492,0.934l-2.803,2.492l-1.557,2.18
			v1.246l1.557,2.803l-6.521,0.161l-2.653-2.267l-2.945-1.029l-2.604-0.397l-2.543,2.51l-7.414-2.61l-3.34,0.715l-0.68-1.321
			l-1.719-0.682l-2.902,4.297l-0.934,1.246h-4.048l-6.229-4.359l-2.014,0.184l-0.542,4.708l-1.111,1.116l-3.062-1.371l-1.914,0.255
			l-4.243-2.332l-2.2,2.154l-2.142-0.246l-2.271,2.608l-0.614,0.28l-3.284,3.244l-2.797,0.807l-0.784,1.241l-3.54,2.742
			l-3.151,5.658l-0.832,1.563l-0.052,1.331l1.312,0.609l0.793,2.908l-2.838,3.889l-3.987,0.778l-0.923,1.029l-2.436-0.052
			l-2.188,0.18l-2.487-4.914l-3.231-1.844l-1.18-1.968l-1.666,3.041l-1.128,0.344l-0.445,3.227l-0.365,0.565l-5.692-1.735
			l-0.42-0.628l-1.062-0.377l-0.609,0.625l-2.53,3.085l-1.375,0.19l-1.635-1.745l-0.506,0.305l-2.859,6.675l3.388,5.236
			l-4.592-0.908l-1.178-0.665l-1.206,0.585l-3.308-1.627l-2.869,3.725l-4.244,1.42l-1.68,2.371l0.482,2.219l-3.228,3.33
			l-1.754,1.552l-1.56,0.352l-0.988,1.902l0.727,1.097l5.355,1.129l1.216,1.221l-0.142,0.928l0.963,1.967l2.003,1.359l-0.422,1.701
			l-2.012,0.893l-0.807,7.609l0.595,2.472l-1.28,2.012l1.313,3.247l0.494,0.308l-0.999,2.559l-2.656,2.303l-0.069,4.276l2.149,1.774
			l3.407-2.556l0.463,1.44l2.495,1.478l1.847,1.568l1.172,0.396l1.983-0.835l2.229-0.787l2.016,0.695l0.619,1.066l0.15,3.163
			l1.257,1.868l-0.594,1.278l-3.115-1.407l-2.403,1.423l-1.18,1.738l1.175,2.953l-0.41,3.564l-1.753,1.46l-1.037,4.63l-1.836,2.594
			l-2.87-0.097l-1.081,1.069l4.707,8.956l-1.285,5.002v-0.004l-2.32,1.513l-2.043,4.61l-3.099,1.881l-1.458,0.011l-1.823,1.146
			l-2.012-0.438l-0.649,0.472l-1.655,4.068L218.574,503l-0.78,4.813l-0.155,1.911l-0.891,0.797l-5.211,14.382l0.17,2.312l2.767,1.37
			l0.422,2.901l1.268,2.267l-0.685,3.334l0.689,1.924l1.629,0.429l-0.455,4l-3.695,3.561l-1.155,3.141l0.549,2.862l-2.211,2.3
			l-0.229,0.204l-0.799,2.255l2.654,2.981l0.905,9.2l6.552,6.444l0.194,2.896l1.091,1.043l3.555,3.792l1.741,1.326l2.232,8.218
			l0.089-0.413l1.718,0.254l0.418-2.101l0.551,0.858l0.577-0.383l0.236,1.528l2.935-0.19l1.833-1.338l0.314-1.337l0.997-0.127
			L238,589.172h0.92l0.603-3.82l1.546,1.435l-0.079,1.241l-0.76,0.224l0.865,0.414l-0.367,0.827l1.493,0.541l-0.497-0.859
			l2.174-1.465l1.127,2.166l1.468-2.102l0.969,1.592l1.049-3.344l-1.127-0.256l-0.995-2.805l-1.914,0.353l0.891-1.339l2.045,0.925
			l0.732-0.86l0.236,0.7l-1.178,0.639l1.415,0.732l1.179-4.653l2.019-1.53l0.629,0.32l-1.153,0.988l-1.284,5.447l0.157,0.511
			l0.734-0.639l0.419,0.797l-1.022,2.323l1.338,2.071l-2.176,2.323l0.943,2.037l3.434,1.938l4.245,0.063l-1.678,1.305l0.733,1.019
			l1.049-0.256l0.995,1.849l0.864-1.562l1.6-0.572l0.681,1.208h0.734l0.208-1.208l0.655,1.399l1.887,0.159l0.184-3.691l-0.787-1.271
			l2.018-0.191l0.418-0.826l0.578,0.604l1.625-0.318l0.313,0.159l1.651,0.255l-0.025,3.213l1.546,0.923l-0.026-1.398l0.707,0.73
			l1.415-1.018l-0.473-2.068l2.019-0.892l-0.288-2.005l1.31,0.638l-0.208,1.081l1.021-0.19l1.388,4.613l-4.061-0.128l-1.389,0.7
			l1.782,2.703l1.074-0.795l0.026,1.238l1.284-0.697l0.655,1.018l0.21-1.559l0.472,1.686l1.572,0.318l-0.288-1.877l0.786,0.414
			l0.288-0.7l0.55,2.354h2.805l0.341,0.604l-2.91-0.127l-1.729,1.368l0.368,1.143l1.31-0.095l-0.418,0.856l0.786,0.573l1.099-0.318
			l-0.943,0.765l-0.996-0.318l0.185,1.748l-1.232-2.511l-0.629,0.54l-1.073-1.432l-0.945,1.178l-0.655-1.111l0.236,1.43
			l-0.917,0.413l0.576,1.048l1.049-0.953l2.986,1.209l0.052,1.271l-1.493,0.953l1.127,0.764l0.628-0.954l0.839,1.207l-0.287,1.177
			l0.812-0.382l0.079,1.685l2.489,0.381l1.153-2.225l-1.52-1.206l1.887-0.284l-0.812-0.858l0.994-0.159l0.027-2.063l-0.236-0.923
			l-2.751-0.637l3.931-1.364l-0.498-2.259l0.864,0.128v-1.938l1.049,1.334l0.76-2.288l-0.97-0.254l-1.101-2.514l-1.232,0.096
			l0.604,1.463l-2.36,3.243l-0.183-2.768l0.604-0.765l-0.787-0.763l1.677-2.516l-0.996-0.891l0.418-1.688l-0.576-0.256l1.94-1.939
			l-0.236-1.051l-1.205-0.385l-1.94,0.415l-0.026-1.434l5.189,0.796l0.052-1.019l1.284,0.509l0.603-1.942l0.838,0.541l0.918-1.241
			l-1.966-1.498l0.026-1.399l-2.017-0.67l1.783,0.063l0.262-0.893l0.052-1.211l-1.259-1.309l-0.969,1.436l-0.393-0.828l-0.788,0.191
			l0.184,2.008l-4.062,1.02l-1.493,0.894l-0.105,1.753l-2.727,1.082l0.971-2.42l1.231-0.479l-0.708-1.592l0.76,0.413l2.724-1.912
			l0.342,0.893h1.153l1.31-1.942l2.098-0.19l0.418-0.958l1.074,0.385l-2.961-2.104l0.21-1.053l2.279,0.893l1.022-0.415l-0.104-0.828
			l2.515,1.181l1.545-0.639l1.023-1.816l0.079,1.436l0.865,0.031l-0.603,0.734l3.772,1.146l-1.859,1.116l0.313,1.212l-2.227,0.158
			l1.284,1.814l1.205-0.157l-0.576-1.37l1.965,0.188l0.42,0.227l-1.417,1.146l5.924-1.754l-0.863-0.7l-1.364,0.318l-0.786-0.956
			l2.254-0.638l-2.438-1.944l-0.055-3.382l-2.514,0.063l0.13-0.701l2.175-0.542l-0.942-2.104l-1.125-0.129l0.286-1.31l-1.39-1.596
			l2.201-2.585l4.193-1.342l-3.933,2.361l0.21,3.226l1.521,1.085l0.471,1.883l-0.76,1.085l0.84-0.256l0.628,0.829l0.419-1.723
			l1.835-0.318l-0.288,1.34l1.781,0.732l0.341,1.53l1.18-0.956l-0.521-1.755l1.676-0.799l-0.209,0.989l0.864,0.287l0.604,1.816
			l-1.494,2.2l0.708,0.734l0.604-0.829l1.23,0.031l0.053,0.925l0.864-0.191l0.367,0.733l1.128-1.052l2.252,0.669l-0.155-1.244
			l0.971,0.731l1.806-2.221l-0.313,2.317l1.258-0.19l-1.833,1.529l0.76,0.895l2.937-2.169l1.492,1.625l4.43,0.512l0.969-4.909
			l1.05,0.382l-1.021,4.527h1.647l1.968-3.604l0.077,2.869l2.07-2.423l-0.551,3.029l0.813,3.313l0.732,0.382l-0.104,1.754
			l1.181-0.829l-0.686-0.925l1.154,0.129l-0.208-1.656l0.968,0.351l0.158,1.467l0.942-0.416l-0.916-3.854l1.072-0.19l1.103,3.569
			l0.706-1.146l-0.682-1.434l0.813-0.097l0.21-1.785l1.703-2.68l1.782-1.309l0.708,0.447l-0.21,1.977l1.938,0.255l0.316,0.386
			l1.913-0.319l1.178,0.638l0.131-2.613l-0.523-1.5l-1.021-0.158l0.603-2.074l1.624-0.223l-0.104-0.8l1.648,1.084l1.285-0.925
			l1.65,0.607l1.128-0.703l0.576-2.202l2.332-0.671l0.551-1.725l-0.787-1.372l0.604-1.405l0.971,0.511l1.415-3.033l-0.313-1.629
			l-1.6-0.19l1.86-0.99l0.839-5.02l1.5-1.088l1.981,0.671l0.265-1.183l1.074-0.064l2.018-3.068l1.18,0.479l1.493-0.864l-1.783-2.494
			l1.812-2.912l-1.127-1.729l1.57-1.216v-1.602l-1.362,0.736l0.499-0.992l-1.153,0.063l-0.76-3.01l2.228,1.697l2.595-3.235
			l-0.893-1.571l-0.97,0.258l-0.522-0.705l2.358-0.129l-0.342-1.441l-0.97-0.256l0.078-1.122l-2.306-2.341l1.494,0.479l1.938,2.117
			l0.63,2.948l1.152,0.897l-0.157,2.467l1.81-1.281l0.994,0.416l1.021-1.187l-1.493-0.705l1.259-0.607l-0.997-0.736l1.206-0.514
			l0.185-1.57l-0.761-0.096l1.129-0.514l0.653-2.404l-0.523-3.144l1.126-0.771l0.026-1.379l-0.693-1.449l-2.892-0.409l0.001-0.001
			l3.01,0.221l-1.441-1.379l-0.237-2.313l1.262-2.377l1.049-0.097v-1.604l1.149-1.284l-0.444-1.832l2.358-7.521l-0.63-1.896
			l1.939-2.062l-0.288-2.121l2.463-5.506l-1.598-0.319l1.1-1.063l-0.444-1.318l0.863-0.74l-1.519-3.223l2.933-2.644l0.237-3.159
			l3.064-4.354l-0.682-0.937L396.124,466.57z M276.176,515.907L276.176,515.907 M367.446,548.547l-0.377-0.627L367.446,548.547
			L367.446,548.547z"/>
		<polygon fill="#CCCCCC" stroke="#FFFFFF" stroke-width="0.5" points="611.396,326.541 611.344,326.279 611.238,326.411 
			611.134,326.312 610.977,326.411 611.057,326.772 611.37,326.837 611.396,326.706 611.581,326.672 		"/>
		<polygon fill="#CCCCCC" stroke="#FFFFFF" stroke-width="0.5" points="268.66,605.046 265.596,603.266 262.45,604.347 
			262.738,605.682 264.021,605.999 264.153,607.303 266.172,605.269 		"/>
		<polygon fill="#CCCCCC" stroke="#FFFFFF" stroke-width="0.5" points="252.388,605.047 252.518,603.871 251.76,604.188 
			252.86,603.139 252.991,601.741 251.917,600.436 251.313,600.691 251.103,599.1 250.109,598.973 248.797,600.722 248.928,602.789 
			247.644,602.502 249.557,596.143 246.545,597.415 244.553,601.168 243.243,601.995 243.793,605.206 247.069,606.096 
			248.458,605.779 248.772,604.571 251.052,606.096 251.838,605.779 252.808,606.732 253.541,606.128 254.904,606.985 
			253.83,605.047 		"/>
		<polygon fill="#CCCCCC" stroke="#FFFFFF" stroke-width="0.5" points="252.362,607.716 250.947,607.62 249.48,606.222 
			245.758,606.508 242.823,608.573 243.164,609.431 241.46,609.177 241.303,607.048 238.132,605.617 238.709,604.695 
			237.084,602.024 237.425,600.531 239.652,599.703 239.652,594.136 239.023,593.85 238.84,594.646 236.638,593.373 
			234.461,593.913 234.042,595.154 232.967,595.536 232.862,597.096 233.832,598.367 232.182,598.591 231.789,597.987 
			230.609,599.386 230.531,601.516 229.561,601.58 228.513,603.55 229.089,606.379 231.264,609.271 231.029,610.701 
			232.732,613.655 231.659,613.91 231.291,616.037 232.785,616.133 232.601,617.34 233.675,617.752 233.256,618.481 
			236.244,619.116 238.367,617.784 237.659,614.1 242.01,612.766 241.38,616.291 242.612,620.575 245.18,620.638 245.653,619.21 
			245.993,620.035 247.513,620.225 247.435,619.146 248.222,618.86 249.164,619.463 248.51,621.399 252.388,620.575 
			249.899,618.799 252.23,615.782 251.365,612.258 252.126,611.051 251.655,610.098 252.834,610.035 		"/>
		<polygon fill="#CCCCCC" stroke="#FFFFFF" stroke-width="0.5" points="326.547,580.731 325.526,581.017 325.027,579.583 
			321.828,581.08 323.61,584.076 322.668,584.872 324.713,585.764 323.899,586.974 325.001,587.931 324.739,588.534 
			326.049,586.687 325.394,585.892 327.019,582.483 		"/>
		<polygon fill="#CCCCCC" stroke="#FFFFFF" stroke-width="0.5" points="272.645,630.187 271.701,629.235 272.697,628.538 
			269.841,626.984 268.163,627.43 268.845,628.413 267.743,628.793 268.189,629.522 269.053,629.015 268.791,629.776 
			269.578,630.347 268.451,631.043 268.713,631.613 269.604,631.772 269.762,630.853 271.517,629.934 274.007,630.789 
			274.923,628.507 273.588,628.538 		"/>
		<polygon fill="#CCCCCC" stroke="#FFFFFF" stroke-width="0.5" points="316.88,602.376 316.434,601.136 316.538,600.404 
			315.567,599.833 313.708,602.059 313.813,601.168 312.371,600.882 312.424,599.833 314.415,598.687 313.786,597.383 
			315.045,597.161 314.495,594.234 315.359,594.328 314.388,591.4 312.45,590.478 312.844,588.248 312.058,587.738 313.421,587.674 
			312.923,586.623 313.971,586.719 314.836,585.063 313.944,583.598 312.633,583.088 311.925,583.725 311.298,583.442 
			310.406,583.57 309.646,586.563 310.956,586.437 310.224,587.168 309.961,587.455 308.886,587.582 309.384,588.378 
			308.336,588.634 308.886,589.365 307.813,590.479 307.969,592.135 306.344,591.084 306.372,591.722 303.776,592.071 
			303.803,590.702 301.916,593.79 304.327,596.05 304.065,597.101 305.06,596.813 305.637,599.644 301.915,597.036 300.475,597.801 
			301.024,598.724 300.107,598.882 296.255,596.082 295.338,597.642 293.897,597.451 294.369,598.246 293.557,597.896 
			293.95,598.597 293.137,598.659 291.251,601.808 292.142,605.527 294.605,606.608 293.924,607.466 294.867,609.15 
			296.125,608.419 295.758,607.498 296.518,607.752 296.623,606.386 299.924,606.417 300.737,603.938 302.178,604.765 
			302.152,605.462 301.104,605.146 302.099,606.671 302.807,606.481 301.836,608.102 301.811,610.389 297.434,611.564 
			298.089,611.946 297.852,612.994 299.242,611.438 300.238,611.597 298.823,612.993 299.661,614.072 300.893,612.675 
			303.015,612.738 302.518,613.595 303.381,614.358 301.337,614.518 301.129,616.96 303.959,618.072 301.889,619.056 
			301.104,621.339 302.387,620.578 304.195,621.498 305.688,620.039 306.895,620.516 307.052,619.594 305.401,618.166 
			305.873,617.404 306.055,618.103 308.545,617.086 310.484,618.419 310.955,617.023 308.256,616.833 306.869,614.451 
			307.602,612.673 308.782,613.117 310.223,611.847 309.515,610.99 309.751,608.702 311.82,609.147 311.611,610.385 
			312.292,610.576 313.446,608.67 314.205,610.036 313.653,610.83 316.537,611.688 314.519,607.557 315.122,606.478 
			314.388,605.937 313.524,606.954 312.869,605.523 314.469,604.474 315.045,605.458 316.171,605.174 315.019,602.789 
			316.224,603.074 		"/>
		<polygon fill="#CCCCCC" stroke="#FFFFFF" stroke-width="0.5" points="293.24,612.259 292.691,608.827 291.799,608.827 
			292.403,608.129 290.935,608.129 290.647,608.954 291.355,609.813 291.513,610.861 290.753,611.241 290.281,609.463 
			290.044,611.75 291.381,613.529 290.805,614.672 292.797,615.116 294.682,614.005 294.997,612.83 294.447,612.005 		"/>
		<polygon fill="#CCCCCC" stroke="#FFFFFF" stroke-width="0.5" points="269.238,608.923 271.255,609.113 271.805,608.318 
			269.053,605.458 267.062,605.842 266.197,607.081 266.852,607.685 265.647,607.303 265.49,608.097 269.5,610.797 		"/>
		<polygon fill="#CCCCCC" stroke="#FFFFFF" stroke-width="0.5" points="304.221,590.35 305.373,589.269 305.872,589.967 
			307.601,589.585 308.414,585.987 307.941,584.744 306.238,586.211 306.473,587.325 304.901,587.356 305.792,588.121 
			304.429,588.95 		"/>
	</g>
	<path id="KR-49" fill="#CCCCCC" stroke="#FFFFFF" stroke-width="0.5" d="M148.17,754.771l0.681,0.781l-0.445,0.598l1.442-0.097
		l-0.682,2.909l-2.07-0.5l-0.445-1.438L148.17,754.771z M143.558,769.871l-3.145,2.279l-0.472,2.024l-2.463,2.473l0.157,1.436
		l-1.31,1.468l-5.058-0.094l-3.118,3.245l-8.988,1.122l-2.751,2.933l-1.808,0.688l-0.996-0.904l-1.703-0.063l-0.524,1.279
		l-1.468-0.873l-2.149,0.188l-5.293,1.65l-1.835-1.839l-2.332,0.623l-1.861-0.999l-3.302,1.498l-4.219-1.122l-3.092,2.026
		l0.026,2.961l-1.388-0.498l-0.944,0.623l-0.891-0.592l0.236-1.122l-0.839-0.031l-2.122-2.869l-4.875-2.838l-1.834-2.994
		l0.576-3.308l-0.576-1.813l1.782-1.468l0.026-1.404l2.752-1.779l1.179-1.813l1.206,0.188l2.175-2.5l0.445-2.813l4.194-1.688
		l0.445-1.971l5.371-1.031l1.651-1.346l1.18,0.75l7.888-3.063l1.074-1.223l2.019,0.598l2.41-0.973l4.298-0.094l0.786-1.158
		l3.694-0.25l1.102-2.003l1.887,1.503l1.1-1.128l4.639-0.906l3.17,0.375l0.236-0.938l3.328,1.127l2.752-0.501l1.31,3.005
		l1.755,0.938l0.996-0.625l3.25,1.03l-0.419,1.313h1.022l0.341,0.938l-1.154,2.158l1.809,1.438l1.336-0.5l1.074,1.688l-0.472,0.563
		l-0.996-0.655l-0.812,1.219l-0.105,1.031l1.494,1.094l-0.734,0.876l-1.231-1.313L143.558,769.871z"/>
</g>
<path fill="#CCCCCC" stroke="#FFFFFF" stroke-width="0.5" d="M180.789,395.187"/>
</svg>
