<?xml version="1.0" encoding="utf-8"?>
<!-- Generator: Adobe Illustrator 15.0.0, SVG Export Plug-In . SVG Version: 6.00 Build 0)  -->
<!DOCTYPE svg PUBLIC "-//W3C//DTD SVG 1.1//EN" "http://www.w3.org/Graphics/SVG/1.1/DTD/svg11.dtd">
<svg version="1.1" id="레이어_1" xmlns:amcharts="http://amcharts.com/ammap"
	 xmlns="http://www.w3.org/2000/svg" xmlns:xlink="http://www.w3.org/1999/xlink" x="0px" y="0px" width="973.451px"
	 height="686.966px" viewBox="-234.383 134.604 973.451 686.966" enable-background="new -234.383 134.604 973.451 686.966"
	 xml:space="preserve">
<defs>
	
	
		<amcharts:ammap  projection="mercator" leftLongitude="125.385069" topLatitude="38.611881" rightLongitude="131.873029" bottomLatitude="33.194810">
		</amcharts:ammap>
</defs>

<g>
	<g>
		<polygon fill="#CCCCCC" stroke="#FFFFFF" stroke-width="0.5" points="118.187,309.904 115.408,307.013 114.648,306.882 
			113.757,309.313 114.937,309.608 114.832,311.545 115.776,312.465 117.347,312.038 		"/>
		<polygon fill="#CCCCCC" stroke="#FFFFFF" stroke-width="0.5" points="108.149,292.875 108.543,293.435 110.403,292.81 
			112.447,293.237 112.708,291.789 109.748,292.217 108.333,290.208 107.467,290.473 105.634,289.222 107.495,291.725 
			107.128,293.83 		"/>
		<polygon fill="#CCCCCC" stroke="#FFFFFF" stroke-width="0.5" points="93.344,275.55 92.296,275.187 91.064,276.078 
			92.243,276.804 93.396,276.309 94.261,277.792 96.121,278.122 96.41,276.671 94.969,274.165 		"/>
		<polygon fill="#CCCCCC" stroke="#FFFFFF" stroke-width="0.5" points="88.601,325.718 87.684,326.341 86.924,323.488 
			85.824,323.324 84.303,329.323 85.56,329.126 85.744,328.34 86.138,329.618 87.291,329.257 87.134,330.699 90.515,330.175 
			92.114,328.308 88.838,326.275 		"/>
		<polygon fill="#CCCCCC" stroke="#FFFFFF" stroke-width="0.5" points="121.147,321.39 119.209,321.815 119.025,323.095 
			117.48,322.964 116.772,324.473 117.585,326.439 117.245,328.308 119.131,328.274 119.184,329.191 119.813,329.126 
			121.149,328.012 120.888,327.16 122.407,327.062 121.254,325.75 122.512,325.718 122.303,324.964 123.298,325.686 123.98,323.719 
			122.669,322.014 		"/>
		<polygon fill="#CCCCCC" stroke="#FFFFFF" stroke-width="0.5" points="107.128,325.062 103.695,323.291 102.62,324.537 
			106.604,326.635 108.674,326.111 109.408,324.898 108.045,324.375 		"/>
		<polygon fill="#CCCCCC" stroke="#FFFFFF" stroke-width="0.5" points="100.471,278.22 97.353,278.121 101.075,281.976 
			101.415,281.415 100.288,280.592 		"/>
		<g>
			<polygon fill="#CCCCCC" stroke="#FFFFFF" stroke-width="0.5" points="104.429,264.958 106.395,263.771 108.098,260.997 
				107.023,259.809 104.638,260.469 101.598,258.719 98.951,258.719 97.38,260.205 97.171,262.482 95.65,264.134 97.459,266.214 
				98.533,266.642 99.581,265.223 101.809,264.629 			"/>
			<polygon fill="#CCCCCC" stroke="#FFFFFF" stroke-width="0.5" points="112.973,272.846 114.939,277.429 114.074,279.802 
				110.904,280.395 112.057,282.47 111.48,283.261 114.755,285.205 120.101,285.566 120.128,284.546 121.019,284.975 
				121.596,284.053 124.74,284.975 125.552,283.328 126.916,282.932 125.736,278.22 126.677,277 125.21,275.648 125.996,272.482 
				124.843,270.768 126.076,267.039 124.712,265.355 124.372,263.078 119.865,260.139 117.716,257.365 113.785,258.092 
				112.947,260.106 109.462,261.989 109.986,272.054 			"/>
			<g>
				<polygon fill="#CCCCCC" stroke="#FFFFFF" stroke-width="0.5" points="129.088,299.125 131.341,297.71 130.921,295.869 
					129.533,294.554 125.969,293.566 125.236,292.382 123.454,292.842 122.773,295.54 121.436,296.494 115.881,296.757 
					111.95,299.551 110.299,299.583 110.064,300.964 111.609,302.74 110.745,303.365 112.37,304.187 113.968,302.938 
					114.439,303.661 113.548,304.581 114.779,303.76 115.722,304.417 115.382,306.388 118.238,305.829 127.096,298.467 				"/>
				<path fill="#CCCCCC" stroke="#FFFFFF" stroke-width="0.5" d="M247.514,292.541l-8.951-1.363l-4.299-3.687l-2.684-0.324
					l-4.105-2.474l-3.632,1.398l-2.634-2.838l1.745-3.506l0.31-4.379l-3.583,0.901l0.12-2.02l2.693-3.072l-1.318-3.498l0.824-1.957
					l-0.847-2.942l0.589-1.522l2.257-0.75l1.795-2.061l3.304-1.071l0.998-3.959l-0.816-4.026l-1.441-1.586l-4.196-1.417
					l-0.083-2.697l-0.879-0.602l-3.212,0.342l-3.088-1.525l-1.554-3.017l-0.402-7.501l-1.421-1.969l-1.954,1.043l-2.088-1.547
					l-1.483,0.195l-4.098,1.929l-4.459-3.578l0.482-5.312l1.091-0.918l-1.967-0.877l-3.654,3.736l-2.431,0.162l-1.64-0.829
					l-0.394-3.184l-0.992,0.31l-0.179-1.074l0.623-1.868l-1.558-1.246l-0.934-5.294h-4.671v-1.868l1.245-0.935l-4.729-4.408
					l-1.325,0.578l-5.557,4.254l-4.89,5.803h-2.803l-4.671-1.869l-2.492,1.557l-5.605,4.671l-3.426,4.983l1.869,0.934l1.868,3.737
					l6.296,0.289l3.358,1.891l0.623,3.114l-1.245,0.934l-0.312,1.869l-4.982-0.623l-0.312,3.737l-1.558,0.935l0.312,2.491
					l1.868,0.934l-0.311,6.54l-2.181,1.246l-3.114-3.737l1.246-4.36l-1.955-2.464l-2.398,0.072l-0.318,2.704l-1.869,1.869
					l-3.468-3.335l-0.74,0.107l0.895,4.892l-0.485,1.865l4.731,1.764l3.426,4.983l-6.54,1.868h-2.83l-0.959,4.537l-2.998,0.175
					l-3.067,2.459l-3.556-0.528l-2.018-1.604l-0.602,1.171l-1.755,0.792l1.1,1.75l-0.865,4.223l1.075,1.782l-0.498,3.099
					l1.153,0.527l-0.76,1.714l2.647,6.326l2.362,3.096l4.137-2.71l2.109-2.838l2.072,0.192l0.001,0.001l-2.07-0.192l-2.109,2.838
					l-4.137,2.71l2.013,2.571l-3.905,1.613l0.105,0.066l0.996,0.164l2.778-1.645l-0.053,1.415l-0.681,0.296l1.231,1.251l0.157,1.25
					l-0.969-0.099l1.022,1.085l-0.053,1.316l2.411-1.118l0.918,1.677l-1.231-0.395l-2.988,1.184l-1.205,4.635l1.205,0.493
					l0.813-1.282l-0.184,2.596l1.467,0.099l0.498-2.301l0.943,4.271l4.036,3.154l-3.59,4.498l-4.56-0.821l-0.523,1.838l-0.839,0.264
					l0.996,0.032l0.341-1.083l4.586-0.132l3.668-4.628l3.564,0.492l1.965-2.266l-0.446-2.99l0.603,2.333l0.393-1.676l0.681,0.526
					l-0.472,1.807l1.995,0.591l0,0l1.228,0.591l-3.957-0.755l-0.891,1.051l0.813,0.624l-0.393,1.511l-4.691,2.626l0.289,1.51
					l-7.469,2.56l-2.934,2.231l-0.918-0.263l0.472,0.984l-1.284,1.377l-2.883-1.377l2.883,4.033l-0.342,2.065l-1.808,1.114
					l1.442,1.474h-1.206l0.288,0.852l-1.074,1.081l1.65-0.688l1.022,1.572l1.834-3.374l3.014,1.54l0.786-3.31l0.262,1.639
					l1.992,1.245l-0.524,1.704l0.576,0.622l0.787-2.326l-0.341-1.638l-2.621-1.344l-0.629-2.688l-2.201-0.393l-2.123-2l1.022-1.804
					l3.197-2.23l6.473-2.231l9.355,4.527l3.092-0.393l2.751,3.279l1.258-0.426l-0.996,1.771l-1.573-2l-1.913-0.492l0.157-0.918
					l-0.891,0.328l-0.34,0.787l0.943,1.279l-1.913-0.099l0.733,1.738l-0.917,0.853l0.655,0.196l-2.228,3.342l-1.31-0.884
					l0.576-0.688l-0.603-3.015l-2.646,0.852l-0.341-1.082l-3.564-0.754l-0.733,1.835l-1.704,0.361l0.393,1.737l0.918,0.59
					l-0.943,1.737l0.969,1.54l-1.415,0.033l-1.153,1.474l1.179,2.587l-1.073,0.95l1.494-0.623l2.437,0.491l-2.228,2.128l1.284,0.818
					l-0.183,1.767l0.838,0.786l0.394-1.604l3.354-1.898l2.07-3.405l2.542,0.229l1.389-2.129l0.943,2.391l-2.149,1.31l4.665,0.066
					l-2.071,0.588l0.918,1.016l-0.813-0.36l-1.362,1.31l-1.049-0.721l-2.017,1.931l0.052,7.065l-1.572,2.746l0.367,0.785
					l4.297,0.327l0.288,2.091l-1.336,0.425l0.052,0.816l3.904,0.817l1.625,4.147l1.912,0.784l0.446,1.861l1.939-0.326l1.415,0.914
					l0.864,4.55l3.451-2.073l7.536,1.758l4.929-1.769l3.003-2.065l2.579-0.084l2.983,1.423l3.281,3.376l5.085,0.697l2.759-0.231
					l3.773-1.699l1.701-1.235l2.206,0.136l1.792-1.745l0.165-2.104l-0.302-1.083l5.078-3.003l0.799-2.623l2.334-2.565l0.801,1.188
					l1.48-0.022l-0.272,2.065l1.595-3.218l4.294,0.78l4.048-3.737l2.491-0.311l0.623-7.785h1.557l1.557,1.869h1.869l2.657-6.634
					l2.643-0.582l0.617-7.421l-0.623-3.426l1.558-1.245l-0.312-7.474l3.426-8.097l0.312-4.048l-1.949-0.709l-0.785-2.376
					l3.131-4.024l2.06-0.701l0.792-2.179L247.514,292.541z M148.193,299.697L148.193,299.697l3.301,2.892L148.193,299.697z"/>
			</g>
			<polygon fill="#CCCCCC" stroke="#FFFFFF" stroke-width="0.5" points="112.186,274.625 111.138,273.341 108.648,272.978 
				106.551,271.329 106.525,269.02 107.547,266.94 106.63,266.38 103.406,267.699 103.327,271.098 101.807,271.659 106.393,274.825 
				107.417,276.274 107.154,278.352 108.229,279.406 111.793,276.669 			"/>
		</g>
	</g>
	<path id="KR-42" fill="#CCCCCC" stroke="#FFFFFF" stroke-width="0.5" d="M299.054,163.79l1.415,2.806l2.149,2.737l0.574-0.167
		l0.787,1.735l-0.549,1.268l1.756,2.335l-0.578,1.302l1.154,1.001l-0.158,1.466l3.695,4.867l-1.127,0.5l-0.051,1.699l5.502,7.593
		l-0.629,0.432l0.262,1.664l1.598,2.23l-0.025,1.464l2.307,1.995l0.837,5.618l3.985,5.183l-0.814,1.129l2.021,2.723l-0.917,0.996
		l0.917,4.049l5.58,6.567l0.709,3.016l4.034,4.308l1.101,0.099l-0.498,1.888l3.748,6.159l1.679,1.19l-0.08,1.06l4.09,3.737
		l-0.079,2.481l4.376,5.024l0.234,1.453l16.93,18.45l-1.205,4.647l2.385,3.229l4.48,3.689l0.366,1.81l-0.941,1.942l1.938,5.165
		l5.161,5.294l1.102,5.028l4.823,3.744l1.702,6.861l1.833,1.608l1.022-0.098l0.473,2.525l1.651,0.066l0.812,1.082l-0.262,1.804
		l2.804,3.409l-1.468,1.114l0.708,1.77l-0.84,2.391l0.551,2.588l2.727,3.928l-0.315,1.178l0.813,0.835l0,0l-4.27,0.714l0,0
		l-1.867,2.18l-2.492,0.935l-2.803,2.491l0,0l-1.557,2.179v1.246l0,0l1.557,2.803l-6.521,0.161l0,0l-2.653-2.267l-2.945-1.029
		l-2.604-0.397l-2.544,2.51l-7.413-2.61l-3.341,0.715l-0.678-1.321l-1.719-0.682l0,0l-2.902,4.297l0,0l-0.934,1.245h-4.048
		l-6.229-4.359l-2.014,0.184l-0.542,4.707l-1.111,1.116l-3.062-1.371l-1.914,0.255l-4.243-2.332l0,0l-2.374-2.134l-3.485,0.21
		l-3.948-1.274l0,0l-3.581-2.908l-2.004-0.09l0,0l-4.227,1.001l0,0l-1.882,0.468l-0.815-1.395l0,0l-1.793-1.642l0.104-2.616l0,0
		l-0.964-0.808l-1.453,0.326l0,0l-3.278-0.14l-1.188,1.253l0,0l-1.963,0.657l0,0l-0.691,0.469l-2.311-1.765l-0.66-1.693l3.259-2.021
		l2.348-2.723l0.106-1.363l0,0l-1.553-0.527l-1.363,0.831l0,0l-1.049,0.264l0,0l-1.709-0.23l-1.471-1.731l-2.119-0.433l-1.979-1.506
		l-2.451,0.587l-1.786,2.444l-3.645-0.908l-3.668,3.074l0,0l-5.067,0.858l0,0l-0.272-3.841l0,0l-1.774-3.3l-4.258-0.441
		l-1.495,0.942l0,0l-2.837,2.681l0.993,4.68l-0.421,1.798l-3.147,2.098l-2.323-1.151l-3.029,0.094l-1.445,1.872l-2.18,0.934
		l-4.049-3.114l-0.617-3.478l0,0l0.617-7.422l-0.623-3.426l1.558-1.245l-0.312-7.473l3.426-8.097l0.311-4.048l-1.949-0.71
		l-0.784-2.376l3.13-4.024l2.06-0.701l0.793-2.179l-1.648-2.895l-8.951-1.363l-4.299-3.687l-2.684-0.324l-4.105-2.474l-3.632,1.398
		l-2.634-2.838l1.744-3.506l0.311-4.379l-3.583,0.901l0.12-2.02l2.693-3.072l-1.319-3.498l0.824-1.956l-0.847-2.943l0.589-1.521
		l2.257-0.749l1.795-2.061l3.305-1.071l0.998-3.96l-0.816-4.025l-1.442-1.587l-4.196-1.417l-0.083-2.697l-0.879-0.602l-3.213,0.342
		l-3.088-1.525l-1.554-3.017l-0.402-7.501l-1.421-1.969l-1.954,1.043l-2.089-1.547l-1.483,0.195l-4.098,1.929l-4.46-3.578
		l0.483-5.311l1.091-0.919l-1.968-0.877l-3.654,3.736l-2.431,0.162l-1.64-0.829l-0.393-3.183l-0.992,0.309l-0.179-1.074l0.623-1.868
		l-1.558-1.246l-0.933-5.294h-4.671v-1.868l1.245-0.935l-4.729-4.409l0,0l4.034-3.245l3.359,0.38l6.678-3.054l3.409,0.523
		l1.598,1.191l3.186-0.115l1.136-0.941l6.002-1.121l9.214,3.989l8.222-4.226l2.598,1.433l3.779-0.408l2.658,0.669l1.953-1.312
		l5.777,0.29l2.535-1.393l3.657,4.591l3.921-1.107l2.108-2.235l6.28,1.837l1.777-0.436l6.435,1.437l2.959-0.459l2.974-2.434
		l3.333-0.274l6.779-5.402l1.287-2.107l5.52-4.833l2.159-4.594l0.813-4.583l-0.526-9.064L299.054,163.79z"/>
	<g>
		<polygon fill="#CCCCCC" stroke="#FFFFFF" stroke-width="0.5" points="118.92,350.303 118.421,348.21 116.063,347.817 
			116.115,350.598 		"/>
		<polygon fill="#CCCCCC" stroke="#FFFFFF" stroke-width="0.5" points="110.272,430.944 109.616,430.944 109.59,432.272 
			108.517,433.018 108.752,434.411 109.224,433.729 110.534,434.346 110.639,433.439 111.425,433.342 110.482,432.629 		"/>
		<polygon fill="#CCCCCC" stroke="#FFFFFF" stroke-width="0.5" points="117.898,428.676 117.27,427.542 116.248,427.443 
			115.305,427.897 115.829,429.323 113.313,427.93 112.605,429.55 114.465,429.388 119.733,431.138 119.89,430.198 117.165,429.454 
					"/>
		<g>
			<path fill="#CCCCCC" stroke="#FFFFFF" stroke-width="0.5" d="M324.082,350.691l-3.485,0.21l-3.948-1.274l-3.581-2.908
				l-2.004-0.09l-4.227,1.001l-1.883,0.469l-0.814-1.396l-1.793-1.642l0.104-2.616l-0.964-0.807l-1.453,0.325l-3.278-0.14
				l-1.188,1.253l-1.963,0.657l-0.691,0.469l-2.311-1.765l-0.66-1.693l3.259-2.021l2.348-2.723l0.106-1.363l-1.553-0.527
				l-1.363,0.831l-1.049,0.264l-1.709-0.23l-1.471-1.731l-2.119-0.433l-1.979-1.506l-2.451,0.588l-1.786,2.444l-3.645-0.909
				l-3.668,3.074l-5.067,0.858l-0.272-3.841l-1.774-3.3l-4.258-0.441l-1.495,0.942l-2.837,2.681l0.993,4.68l-0.421,1.798
				l-3.147,2.098l-2.323-1.151l-3.03,0.094l-1.444,1.872l-2.18,0.934l-4.049-3.114l-0.617-3.478l-2.643,0.582l-2.656,6.633h-1.869
				l-1.557-1.868h-1.557l-0.623,7.785l-2.492,0.312l-4.047,3.737l-4.295-0.781l-1.595,3.218l0.272-2.065l-1.481,0.021l-0.8-1.188
				l-2.334,2.565l-0.799,2.623l-5.078,3.003l0.302,1.083l-0.165,2.104l-1.792,1.745l-2.206-0.136l-1.7,1.235l-3.773,1.699
				l-2.76,0.231l-0.005-0.002l-5.085-0.697l-3.281-3.376l-2.983-1.423l-2.579,0.084l-3.003,2.065l-4.929,1.769l-7.536-1.758
				l-3.451,2.073l-4.481,1.063l-3.563-0.652l-1.494-4.993l-1.126-0.391l-1.677-3.886l0.078-1.372l-7.495-2.025l-0.367-0.785
				l-6.342-0.229l-6.788-4.051l-2.201-0.36l-1.546-2.256l-2.018-0.719l-0.891,0.654l-0.708,1.373l0.525,0.556l-2.595,2.419
				l0.996,1.895l-1.258,0.653l-2.673-1.34l-3.956-0.392l-2.097,1.045l-0.813-0.523l-1.965,1.667l-0.708-0.36l0.315,1.83l3.145,0.719
				l0.812-0.491l0.446,1.241l0.996,0.164l-1.651,1.339l-0.707-1.11h-2.464l-0.209,1.077l1.442-0.163l0.182,1.143l0.918,0.163
				l-0.184,1.338l0.943-0.914l1.18,0.262l0.865,1.828l1.677-1.338l0.917,0.425l0.026,1.501l-1.31,0.62l0.34,1.143l2.149,0.816
				l-3.302,0.979l0.157,1.533l-1.939-0.26l-1.231,0.717l0.603,2.218l-1.441,1.239l0.891,1.859l-2.07-1.826l0.419-1.696l-1.598-0.294
				l-1.126,2.674l0.969,0.75l-0.289,1.173l0.865,1.142l-1.127-0.554l-0.864,0.88l-0.76-0.424l-0.026,1.041l-0.943-0.063
				l-0.393,1.108l-0.969-2.346l0.235-0.75l3.04-0.913l0.157-0.684l-2.097-0.456l0.079-1.174l1.65-3.653l1.756-0.946h-0.97
				l-0.183-1.599l-1.651-1.469v-3.231l0.944-1.306l-0.996,0.099l-0.812-1.045l1.021-0.261l0.183-1.567l-2.332,1.796l1.047,5.125
				l-0.838,1.306l0.367,1.077l-3.695-1.077l0.445-0.686l-1.468,0.098l-2.357,1.893l-0.917-0.783l-0.498,2.251l-1.862-0.131
				l1.337,1.208l-0.892,0.685l0.682,1.696l0.996-0.065l-2.071,2.739l1.415,1.565l-1.1,0.098l1.625,4.334l-1.913-3.683l-0.682,0.521
				l0.053-3.716l-1.022-0.064l-0.079-1.077l-0.472,0.75l-0.628-0.293l0.576,1.043l-0.917,0.033l1.284,1.206l-0.183,1.174
				l-1.311,1.01l0.734,0.651l-0.419,1.564l-1.049,0.847l-0.419-0.521l0.026,1.271l-1.809,0.358l1.206,2.801h0.865l-1.363,4.916
				l3.092-2.67l-1.153-3.679l1.547,0.846l3.538-0.26l-1.022,1.335l1.913,1.074l1.232-0.585l-1.258,2.343l1.048-0.651l0.891,0.651
				l-1.546,1.921l-3.563-1.53l-1.835,1.465l0.551,3.287l3.905,0.39l1.073-2.31l2.307-0.227l0.628-0.813l-0.314-1.823l2.097,0.098
				l1.86-1.531l0.394,0.749l-0.812,0.293l-0.08,2.214l-1.126,1.367l0.315,2.148l2.175,0.292l1.073,2.31l0.131,3.153l-1.048,0.748
				l-0.551,2.924l1.022,1.725l6.656-5.753l4.298,1.233l5.005,3.543l0.734,3.021l-0.654,1.689l2.357,2.891l1.494-1.268l4.14,2.985
				l-4.192-2.239l-2.019,2.11l-0.235,3.407l0.55,2.79l1.232,1.297l-0.263,1.2l2.62-1.329l0.315-1.396l0.787-0.063l2.516-3.277
				l2.437,1.007l2.228-0.779l-0.997,1.232l-2.699-0.453l-0.681,2.758l-1.494-0.098l-1.52,1.491h-1.257l-2.386,1.654l-0.917,1.913
				l-0.418,3.209l1.782,0.03l4.717,3.272l3.25,0.681l-2.595-0.228l-4.062,2.816l-1.284,0.1l4.56,6.895l-1.729,3.14l0.891,4.495
				l-1.494,1.615l0.184,2.23l-0.759,0.97l-2.359-0.227l-0.027,2.746l1.075,0.969l0.289-2.393l1.179-0.321l2.621,0.938l0.917,1.842
				l1.389-1.39l2.542,2.197l1.336,2.938l0.813-0.711l1.048,0.485l-0.026,0.836l1.179-0.32l-2.437,1.938l1.049-0.193l0.288,2.808
				l1.048-0.096l2.254,2.58l-0.76,0.484l0.052,2.128l0.733,0.743l1.127-0.613l4.271,1.063l1.39-2.16l0.682,0.326l1.304-0.557
				l1.479,1.355l11.522-4.982l0.003-8.426l4.68-2.676l3.677,0.669l3.757,2.266l1.264-0.379l2.19,2.007l0.312,3.737l2.43,0.189
				l0.532,2.019l2.546,0.183l5.663-2.1l2.843,1.889l5.294-0.313l-0.624-2.49l4.36,0.312l2.415-2.012l1.132,1.624l2.958,5.093
				l2.215,7.128l4.909-1.557l0.696,4.98l6.54-0.312l0.934-1.868l0.157-2.201l1.026-0.182l1.884-0.999l4.095,2.448l2.803-2.806
				v-2.479l0.004-0.001l1.095-0.624l1.051,2.267l4.09,1.412l1.7,1.041l0.154,0.916l2.598-0.004l0.358-0.901l4.98-2.396l2.89,2.277
				l2.735-2.563l1.081-1.07l2.869,0.097l1.837-2.594l1.037-4.63l1.752-1.46l0.41-3.564l-1.174-2.953l1.18-1.738l2.403-1.423
				l3.115,1.407l0.594-1.278l-1.257-1.869l-0.151-3.163l-0.619-1.066l-2.016-0.695l-2.228,0.787l-1.984,0.835l-1.172-0.396
				l-1.847-1.568l-2.494-1.478l-0.463-1.44l-3.408,2.556l-2.149-1.775l0.069-4.276l2.656-2.304l0.999-2.558l-0.494-0.307
				l-1.313-3.247l1.28-2.013l-0.595-2.471l0.807-7.61l2.012-0.892l0.421-1.703l-2.003-1.358l-0.963-1.965l0.142-0.929l-1.216-1.219
				l-5.355-1.129l-0.727-1.097l0.988-1.903l1.56-0.353l1.754-1.549l3.228-3.332l-0.482-2.217l1.68-2.372l4.243-1.42l2.869-3.725
				l3.308,1.628l1.205-0.585l1.178,0.664l4.591,0.908l-3.387-5.236l2.86-6.675l0.506-0.305l1.635,1.745l1.376-0.19l2.529-3.085
				l0.61-0.624l1.062,0.376l0.42,0.628l5.692,1.736l0.365-0.566l0.445-3.227l1.129-0.343l1.665-3.041l1.179,1.968l3.232,1.844
				l2.486,4.914l2.189-0.18l2.436,0.051l0.924-1.028l3.986-0.779l2.838-3.889l-0.793-2.908l-1.312-0.609l0.052-1.331l0.832-1.562
				l3.15-5.657l3.541-2.742l0.783-1.241l2.797-0.807l3.284-3.243l0.616-0.28l2.272-2.608l2.141,0.246l2.2-2.154L324.082,350.691z"/>
			<polygon fill="#CCCCCC" stroke="#FFFFFF" stroke-width="0.5" points="117.216,421.35 114.858,419.598 115.853,418.17 
				114.989,416.742 115.146,414.926 114.046,415.25 114.386,413.238 112.159,412.004 112.971,411.127 111.95,409.765 
				111.846,406.517 110.378,405.834 111.898,404.858 111.951,403.722 110.981,401.121 109.644,400.504 105.924,404.273 
				107.575,407.652 107.26,412.848 108.151,414.893 107.076,417.781 108.439,417.392 107.811,420.732 110.249,421.121 
				109.698,423.004 111.427,424.526 112.396,423.425 114.31,423.457 113.94,424.204 115.146,424.204 115.304,425.37 
				116.771,425.856 116.194,424.495 117.479,423.49 			"/>
		</g>
	</g>
	<g>
		<path fill="#CCCCCC" stroke="#FFFFFF" stroke-width="0.5" d="M253.556,471.44l-2.735,2.563l-2.89-2.277l-4.98,2.396l-0.358,0.9
			l-2.598,0.004l-0.154-0.916l-1.7-1.041l-4.09-1.412L233,469.392l-1.095,0.624v2.48l-2.803,2.804l-4.096-2.448l-1.883,0.999
			l-1.027,0.182l-0.157,2.201l-0.934,1.868l-6.54,0.313l-0.696-4.982l-4.909,1.557l-2.215-7.128l-2.958-5.093l-1.133-1.624
			l-2.414,2.012l-4.36-0.312l0.624,2.491l-5.294,0.312l-2.843-1.889l-5.663,2.1l-2.546-0.183l-0.532-2.018l-2.43-0.19l-0.312-3.737
			l-2.19-2.007l-1.263,0.379l-3.757-2.265l-3.678-0.669l-4.679,2.675l-0.003,8.426l-11.523,4.983l-1.479-1.356l-1.304,0.557
			l0.89,0.318l-0.315,1.322l-1.703,1.87l-2.883-1.129l-1.651,1.226l-5.712,0.807l-0.708,0.84l-1.153-1l-4.9,0.354l-0.733,0.902
			l1.886,1.481l0.026,1.097l4.534,0.482l-0.184,6.539l5.163,0.29l1.363-1.224l3.25,0.998l2.148-0.772l2.804,0.29l1.651-1.643
			l4.167-0.129l-2.91,1.417l-0.079,2.094l-0.916,1.126l-5.294-0.227l-3.197,1.224l-1.441,1.48l8.752,4.987l0.682,2.896l-0.562,2.129
			l-0.827-1.872l-2.096-1.735l-4.481-1.191l-4.613,0.708l-1.86-0.933l-1.049,1.609l0.708,4.308l-3.066,4.242l-2.489,2.12
			l-1.153-0.61l-1.834,1.188l-3.329,3.564l-4.297,2.44l1.258,1.026l-1.049,1.894l0.734,1.637l1.231-0.577l1.101,2.021l1.704,0.737
			l0.576-1.059l0.341,0.994l0.917,0.063l1.153-1.091l4.901,0.032l0.418-0.771l1.232,0.963l0.786-0.931l1.468,0.225l0.288-0.866
			l2.044,1.7l1.389-0.032l-1.153,1.059l0.969,0.578l0.315,3.271l-2.464-3.047l-1.598-0.48l-1.441,0.416l0.053,1.219l-0.551-0.159
			l-1.52,3.56l-0.235-1.25l-2.542-0.321l-2.228,2.084l-2.201-0.93l-1.783,1.153l-0.235,1.57l-1.363-1.282l-5.109,9.805l3.827,0.501
			l-4.484,0.238l-1.468,1.407l-0.445,2.337l0.76,2.399l3.458,2.368l-4.69-1.567l-1.756,4.445l-0.734,5.273l-3.118-0.03l-0.734,1.31
			l1.756-0.032l0.288,0.704l-1.599,2.172l0.551,0.99l-1.364,1.373l-1.335-2.843l-1.101,2.077l1.363,1.116l0.262,1.726l1.572,0.798
			L112,563.45l-0.682,2.556l-1.624,0.543l0.996,0.479l-0.289,1.34l2.175,1.244l3.616,5.808l4.063,0.731l-0.655,1.181l-2.096,0.671
			l2.07,0.954l-1.441,2.296l-2.097,1.4l0.576,1.753l-2.227,0.064l-0.104-1.852l-0.97,0.032l1.547-2.263l-0.997-1.529l-1.127,1.182
			l0.655-2.267l-2.228,2.742l-0.209-1.944l-0.734,0.574l-1.231-0.415l0.708-2.646l-0.891,1.021l-1.205-0.224l0.13-2.456l0.76-0.225
			l0.682-2.326l-0.052-2.556l-1.075,1.276h-0.97l0.603,0.767l-0.917,1.626l-1.285,0.064l-0.079-1.244l-1.362-0.414l-1.048,0.829
			l-0.708-1.914l-1.468,0.894l0.263,1.3l-0.76-0.312l-0.813,1.913l2.202,2.424l-1.651,0.128l-0.371,1.127l-0.029,0.161l1.001,0.657
			l0.603,2.996l2.07-0.988l1.468,2.07l1.284-1.21l-1.258-0.895l1.363-1.052l-1.206-2.229l1.363,0.955l0.131-0.731l1.336,0.031
			l1.153,2.167l-1.258,0.957l1.651,0.415l0.262,2.038l2.621-0.828l0.892,1.115l0.078,1.495l-4.9,3.153l1.86,0.414l-0.943,2.038
			l-1.887,0.956l-0.812-1.688l-0.943,0.668l0.288-1.399l-1.624,2.547l2.436,2.515l-1.493,1.05l0.183,0.732l1.912-0.254l0.236,1.622
			l1.362,0.159l2.49-1.052l-0.393-0.923l0.708-0.856l-0.76-0.511l0.891-1.433l-1.415-0.604l-0.079-0.767l0.865-0.7l0.314-2.769
			l0.918,3.246l1.153,0.765l-0.524,2.229l0.786,1.209l-0.656,0.73l1.467,1.877l-0.445,1.272h-0.838l-0.288,1.972l1.284,0.352
			l-0.629,1.305l1.599,2.892l-1.808,0.699l-2.987,4.252l0.708,2.167l1.991-0.128l0.079,1.334l-1.153,0.444l0.209,1.556l-1.625,1.556
			l2.333,0.857l2.41-1.841l1.573,1.079l1.704-0.539l0.734,1.648l1.44-1.109l2.464,0.254l2.673,3.174l1.179,2.919l2.384,0.127
			l-0.235,2.664l3.014,2.22l2.803,0.856l-3.537,0.158l-3.25-1.396l-0.313-0.888l-2.202-0.224l-0.131,1.396l1.311,0.38l-0.997,1.332
			l-1.572-1.363l-3.932-0.507l-1.624-1.205l0.026-0.889l-0.97,0.381l-1.126-1.269l2.568-3.585l-1.127-0.666l-0.55,0.95l-0.498-0.603
			l-1.651,1.903l-1.808-3.49l-1.048,0.951l1.048,0.189l0.734,1.776l-0.472,0.413l-1.127-0.921l0.702,2.41l-1.646,1.968l1.075,0.95
			l1.389-0.92l0.314-1.235l0.864-0.032l-0.053,0.824l0.734,0.063l-0.498,1.84l1.049-0.255l0.812,2.441l1.18-1.174l0.446,2.885
			l2.017-0.981l0.865,0.538l-0.445,1.144l-2.882,1.457l0.183,0.888l-6.735-4.057l-1.022,1.488l-0.262-1.84l-1.31-0.634l0.104-2.885
			l-2.541-1.427l0.708-0.984l-0.157-2.752l1.547-1.301l-1.757-1.396l-0.995-3.239l-1.259,0.128l0.315-0.729l-1.048-0.984
			l-1.311,0.54l-1.047,5.145l-0.682,1.108l-0.576-0.443l0.157,2.441l-0.76,0.698l0.445,4.188l1.18,1.142l1.179,0.285l0.446-0.633
			l0.419,0.567l-1.231,1.017l-0.105,2.945l3.171,1.175l-0.865,1.015l0.943,1.14l1.992-0.694l2.855,1.426l2.202,0.095l-0.917,2.344
			l0.786,0.791l1.441-0.693l-0.026-0.951l1.494-0.253l-0.209-1.203l2.28,0.791l0.027,1.584l2.043-0.634l0.314,0.822l-2.202,1.68
			l1.913,0.158l0.786,1.359l-1.336,0.823l0.917,2.059l-0.997,0.728l0.735,0.949l0.629-0.254l-0.158,1.646l-0.367,0.254l-0.839,0.854
			l2.622,2.436v-0.979l1.284,0.282l1.126-0.916l0.708,2.813l-1.075,1.644l-1.677-0.916l1.075,2.436l-2.385,0.411l1.258,2.212
			l-0.97-0.095l0.21,1.012l-0.917-0.854l-0.314,0.663l0.603,1.075l3.171-2.021l1.441,0.634l0.603,3.063l-1.389,1.676l0.655,0.536
			l-0.262,2.211l0.865,0.314l0.341-1.01l1.441-0.255l1.494-2.209l4.271,0.853l-0.524-2.368l0.787-1.011l-0.603-0.507l1.703-1.073
			l0.053-2.339l-0.838-0.729l0.942-1.171l-0.497-0.566l0.602-0.79l0.551,0.568l0.55-1.044l0.969,0.253l0.524-1.484l1.363-0.478
			l0.812,0.823l0.079-0.948l2.333-1.424l2.358-0.284l2.201-3.29l-0.786-1.552l2.542-1.551l-0.682-2.627l1.048-0.665l-0.55-0.634
			l0.603-9.408l1.546-2.728l-0.838,5.166l1.022,0.919l-0.235,1.174l0.864,1.014l-0.419,1.71l0.656,0.507l-1.049,3.928l0.943,3.83
			l-1.021,1.232l2.043,0.063l-0.289,1.394l1.284,0.917l2.542-0.348l2.595,1.581l1.205,1.803l0.157-1.454l-1.521-2.467l4.718,0.188
			l1.65,0.79l0.84-1.044l-0.97-2.31l0.576-0.823l1.389,1.583l2.044-0.823l-1.494-2.088l0.367-1.552l0.944-0.506l-1.651-2.027
			l1.153-1.298l1.546,0.38l-0.025-2.471l1.598,0.475l0.131-1.487l-1.625,0.316l-0.943-0.696l1.075-0.95l0.655-2.566l1.022-0.444
			l-1.39-0.759l0.027-0.952l2.279-0.188l2.751-1.27l1.783-2.947l2.935-1.078l2.935-3.648l1.31,1.207l3.852-0.128l4.246-7.237
			l1.546-0.35l1.729,3.302l0.76-1.142l1.966,1.236l1.127-2.189l2.043-0.254l0.629,4.158l1.152,0.539l-1.126,0.351l-1.703,4.917
			l-2.673-0.254l-0.76-0.795l0.733-2.409l-0.498-2.762l-0.969,0.794l-0.682-0.539l-2.227,1.967l0.394,1.649l-1.101,1.078
			l-0.419,2.475l-2.673,0.667l-2.542,2.534l-0.052,3.582l-1.232,0.38l-0.943-1.076l-0.34,1.869l-2.621,2.407l-0.472,1.934
			l0.943,0.633l-0.078,1.234l1.467,0.792l2.935-0.35l0.498,0.664l0.838-1.739l2.517,1.709l-0.08-2.597l2.385,2.091l-0.209,0.791
			l1.179,0.38l0.026-0.729l0.969-0.031l2.752,2.626l-1.415,1.932l3.04,1.233l-0.341,0.854l1.18,0.031l0.708,0.979l-1.1-0.03
			l-0.027,0.634l2.202,0.854l1.126-0.823l-0.262-1.012l-1.677-0.949l1.677-0.188l-1.127-1.014l1.651-0.821l0.629,0.663l0.471-1.613
			l1.337,1.298l0.838-0.791l0.892,0.476l0.236-0.918l-1.127-1.426l1.049-0.728l1.415,0.603l0.34-1.68l2.07,0.888l-0.628-2.186
			l1.258-0.442l-0.446-2.279l-1.362,0.315l0.629-0.57l-2.253-0.379l-1.965,0.569l0.183-1.076l2.201-0.381l0.393-1.362l-1.31,0.793
			l-0.236-0.951l-2.358,0.189l-0.052-0.664l3.957-0.571l0.918,0.919l1.466-0.634l0.996,1.3l1.231-1.68l0.394,1.269l2.437,0.791
			l0.052-0.98l1.704-1.427l-0.813-4.247l-2.778-0.604l-0.838-0.92l0.471-0.442l0.917,0.95l0.341-0.822l1.179,0.665l0.025-0.889
			l-1.545-0.508l0.393-1.998l-1.467,0.127l0.472,1.078l-0.944-0.096l0.053-0.823l-1.205,0.823l0.235-1.363l-1.834-0.031l0.445-0.697
			l-0.812-1.332l-3.276-2.285l-1.546-3.396l2.385-1.872l0.393-1.238l-3.433-1.237l1.939,0.096l0.787-2.001l3.092-2.002l-3.354-0.032
			l-0.918-1.461l-2.227-1.177l2.332,0.096l1.285,1.334l3.353-1.334l0.42-1.366l0.471,1.366l2.333-0.921l1.781,0.539l0.604-0.763
			l-0.185-3.053l2.542-0.7l0.786,4.007l1.651,0.255l-1.599,2.161l-0.184,1.62l3.118,0.223l0.131,1.304l1.363,1.43l-1.363,0.729
			l1.285,0.382l0.026,1.588l0.995-1.08l0.682,1.333l-0.629,0.827l1.808,0.603l-1.913-0.063l-0.341,1.428l-1.048,0.569l-0.629-0.476
			l0.236,0.921l-1.468,1.271l0.812-0.097l-0.366,1.523l1.022-0.952v0.824l1.283,0.063l-2.358,0.889l-0.053,1.587l1.101,0.35
			l-1.179,1.174l2.778,4.09l-0.446-2.154l1.206-0.38l2.411,0.981l0.969,1.616l1.992,0.285l-0.419-1.143l-1.022-0.031l1.205-1.458
			l-1.31-0.508l0.655-0.508l-1.311-2.22l1.546-0.667l-1.389-0.35l0.42-1.016l-1.311-1.27h0.733l0.419-1.304v0.826l1.546,0.552
			l-0.708-1.439l2.253-3.048l-0.183-1.017l0.603-0.158l-0.052,0.729l1.756,1.078l-0.341,0.668l2.097,1.269l2.955-0.567l0.262-1.111
			h1.992l-0.97-4.54l1.337-2.604l0.891,0.063l0.289-5.879l0.839-0.189l-1.337-1.336l-2.306,0.825l0.13,0.766l-1.756-0.699
			l0.944-0.859l-3.17,0.954l-0.105,0.286l-0.917,1.525l-2.542,1.777l-2.306-0.794l-0.026,1.113l-1.153-1.431l0.943-1.306
			l-2.883-0.667l-1.572-3.751l-1.441-0.541l1.913-0.797l0.393-0.188l0.499-0.796l-2.438-1.878l1.966-0.541l0.131-2.988l0.708,0.668
			l-0.158,2.448l1.521,2.26l2.07-0.224l-0.446,0.572l0.944,1.209l0.943-1.368l3.197-1.524l-0.289-1.434l2.018-0.764l1.782-2.101
			l-1.127-5.189l1.415,2.038l0.053,2.896l2.961-1.654l1.362,2.962l2.779,0.094l-2.232-8.218l-1.741-1.326l-3.555-3.792l-1.091-1.043
			l-0.193-2.896l-6.553-6.444l-0.905-9.2l-2.654-2.981l0.799-2.255l0.004-0.002l0.229-0.204l2.212-2.3l-0.549-2.862l1.154-3.142
			l3.695-3.561l0.455-4l-1.629-0.427l-0.689-1.924l0.684-3.334l-1.267-2.267l-0.422-2.901l-2.767-1.37l-0.17-2.312l5.211-14.382
			l0.891-0.796l0.154-1.912l0.781-4.813l4.929-4.729l1.655-4.067l0.649-0.472l2.011,0.438l1.823-1.148l1.459-0.008l3.099-1.881
			l2.042-4.612l2.321-1.511l1.285-5.003L253.556,471.44z M151.074,501.006l-0.682,0.644l-0.425-0.962L151.074,501.006z"/>
		<polygon fill="#CCCCCC" stroke="#FFFFFF" stroke-width="0.5" points="84.775,666.204 81.447,667.089 80.163,665.415 
			79.325,666.489 79.561,666.804 77.857,668.383 78.801,668.161 78.617,669.266 81.08,669.456 81.552,670.56 81.526,668.982 
			82.547,668.92 82.757,670.528 83.439,669.329 85.273,670.498 84.906,669.299 		"/>
		<polygon fill="#CCCCCC" stroke="#FFFFFF" stroke-width="0.5" points="78.279,633.396 78.881,633.968 78.226,634.569 
			78.226,637.517 79.193,637.391 79.744,636.092 80.347,637.072 82.155,636.566 82.522,635.394 82.103,634.284 81.395,634.919 
			81.631,632.922 80.191,633.365 79.353,632.097 80.139,629.973 79.091,630.227 79.248,629.434 77.388,629.879 77.99,631.306 
			77.466,633.841 		"/>
		<polygon fill="#CCCCCC" stroke="#FFFFFF" stroke-width="0.5" points="112.054,643.406 109.643,641.695 108.962,639.924 
			108.045,640.24 108.674,639.132 106.237,639.924 104.9,638.402 105.661,637.737 104.928,636.659 99.162,634.854 99.031,637.327 
			100.027,637.864 98.534,640.778 97.696,640.112 97.617,641.316 96.385,641.729 97.486,642.932 95.599,643.089 95.232,644.133 
			95.966,644.957 94.838,645.495 94.341,643.217 92.611,646.57 87.37,649.45 88.313,651.157 87.657,650.591 86.531,651.033 
			84.802,654.132 87.501,658.686 89.834,657.896 90.123,658.686 89.101,659.127 89.494,659.729 88.551,660.96 90.201,660.96 
			90.07,660.232 90.831,660.011 91.748,661.623 94.001,661.686 96.648,660.707 95.993,659.441 97.224,659.979 98.142,659.094 
			98.744,659.758 99.636,658.557 101.26,658.684 101.391,656.564 102.885,657.355 104.457,656.533 103.644,655.554 104.535,655.175 
			105.347,655.87 104.98,654.669 106.133,655.522 105.897,653.72 107.286,655.46 106.92,656.187 108.151,656.218 108.125,654.542 
			110.929,651.38 110.221,649.734 111.532,648.058 110.326,647.709 110.352,646.854 111.847,646.443 112.423,647.298 
			112.371,645.685 111.635,645.212 112.526,644.547 		"/>
		<polygon fill="#CCCCCC" stroke="#FFFFFF" stroke-width="0.5" points="141.037,681.067 137.683,678.922 137.029,680.468 
			136.137,680.373 137.945,682.423 135.875,684.534 135.822,686.142 136.53,687.78 137.893,686.992 137.762,688.6 138.758,689.071 
			139.648,688.032 139.517,685.418 140.619,685.796 140.881,684.725 139.57,684.691 138.496,682.046 140.488,681.793 		"/>
		<polygon fill="#CCCCCC" stroke="#FFFFFF" stroke-width="0.5" points="133.778,676.21 131.027,675.674 130.503,676.398 
			130.031,675.011 128.616,675.073 129.847,676.745 128.956,676.841 128.693,677.598 129.663,677.598 128.537,678.261 
			128.93,679.521 128.013,679.932 129.612,680.342 129.559,681.509 132.127,682.045 130.791,680.499 132.782,679.995 
			132.678,680.908 134.564,680.878 133.332,678.954 135.141,678.954 134.538,677.219 		"/>
		<polygon fill="#CCCCCC" stroke="#FFFFFF" stroke-width="0.5" points="131.314,682.359 130.712,683.37 130.214,682.266 
			128.825,682.55 127.279,680.941 124.004,683.433 123.925,685.892 124.764,687.845 126.153,687.907 130.817,685.229 
			131.053,683.684 132.18,683.084 133.332,685.103 133.385,683.432 134.616,684.818 135.087,682.96 133.986,683.307 		"/>
		<polygon fill="#CCCCCC" stroke="#FFFFFF" stroke-width="0.5" points="101.939,602.258 101.179,604.07 98.375,603.18 
			97.903,604.991 101.205,606.009 102.777,604.134 105.922,604.483 106.289,605.342 107.573,604.771 108.961,606.678 
			107.258,607.757 107.703,608.425 109.459,608.965 109.642,608.012 111.137,607.788 111.188,604.101 110.114,604.547 
			110.14,603.275 107.021,603.593 106.052,602.767 107.074,602.288 105.999,601.558 107.152,601.367 107.205,600.128 
			109.616,600.286 109.59,599.301 108.149,598.06 105.895,598.251 104.584,596.596 103.013,597.646 105.083,600.604 104.06,601.241 
			102.882,600.637 102.673,602.26 103.381,602.895 102.28,603.277 		"/>
		<polygon fill="#CCCCCC" stroke="#FFFFFF" stroke-width="0.5" points="68.659,620.174 70.782,619.57 69.969,618.364 
			71.017,618.207 69.759,616.302 69.812,614.841 74.843,614.175 75.184,612.841 76.337,612.682 76.074,609.854 74.057,610.172 
			73.088,612.077 71.856,611.823 72.065,612.459 70.859,613.188 66.876,612.585 67.296,613.792 66.483,614.174 66.352,613.633 
			65.959,614.396 66.536,615.094 65.802,618.364 		"/>
		<polygon fill="#CCCCCC" stroke="#FFFFFF" stroke-width="0.5" points="73.795,620.079 72.825,617.696 72.668,619.507 
			71.437,619.443 71.332,621.442 70.362,620.872 70.624,620.269 68.528,620.713 68.318,623.663 68.921,625.313 70.047,624.52 
			69.996,625.629 70.834,626.137 72.118,625.12 72.013,626.676 72.982,626.992 74.477,626.326 74.503,625.248 75.996,624.232 
			76.154,623.186 77.228,623.472 77.7,622.266 		"/>
		<polygon fill="#CCCCCC" stroke="#FFFFFF" stroke-width="0.5" points="89.937,616.111 88.233,613.889 86.504,614.428 
			84.695,613.506 84.355,614.714 83.699,614.745 84.145,616.175 83.28,618.302 85.324,617.096 85.428,618.111 86.084,617.825 
			85.716,619.699 86.895,619.541 87.577,620.302 88.417,618.967 89.832,618.84 90.461,621.855 93.238,621.284 93.527,619.508 
			91.719,615.443 		"/>
		<polygon fill="#CCCCCC" stroke="#FFFFFF" stroke-width="0.5" points="91.117,625.218 90.147,625.534 89.518,627.089 
			88.732,626.518 88.417,627.471 87.238,627.564 87.5,628.581 88.496,627.946 89.072,628.675 88.025,630.293 88.733,631.909 
			90.776,631.339 91.248,630.388 92.925,630.957 93.554,629.911 95.074,629.754 95.362,628.548 93.842,629.086 94.157,627.564 		"/>
		<polygon fill="#CCCCCC" stroke="#FFFFFF" stroke-width="0.5" points="79.979,579.623 81.028,580.674 81.892,580.291 
			82.075,579.94 83.648,579.685 83.648,581.278 86.005,582.234 86.032,580.673 87.553,580.769 86.74,579.239 87.971,579.016 
			86.189,577.263 86.504,575.765 87.683,575.732 87.998,572.638 91.824,570.979 87.186,571.204 87.081,572.289 84.277,575.255 
			81.08,575.829 80.398,578.093 81.97,579.017 81.656,579.877 		"/>
		<polygon fill="#CCCCCC" stroke="#FFFFFF" stroke-width="0.5" points="84.12,603.782 83.49,604.737 81.918,605.023 84.958,608.87 
			85.326,610.935 87.527,610.584 88.025,609.186 87.108,607.534 87.894,606.39 89.02,606.898 90.619,605.659 88.889,604.548 
			88.863,603.753 90.698,603.815 91.3,603.021 89.911,601.208 89.44,601.972 87.239,601.081 86.662,601.462 86.819,603.242 
			87.71,603.973 87.212,604.895 		"/>
		<polygon fill="#CCCCCC" stroke="#FFFFFF" stroke-width="0.5" points="23.744,623.854 22.407,623.125 23.691,622.077 
			20.599,622.647 20.652,623.885 18.581,626.803 19.656,627.817 18.425,628.421 19.368,630.068 20.94,630.639 20.861,628.958 
			22.486,628.262 21.936,626.676 23.823,626.2 24.059,624.138 25.919,623.503 24.898,622.456 		"/>
		<polygon fill="#CCCCCC" stroke="#FFFFFF" stroke-width="0.5" points="74.267,603.243 79.455,603.783 80.503,605.629 
			80.32,603.847 81.08,603.626 81.29,604.388 82.73,603.942 82.39,603.148 84.356,603.245 83.752,601.813 85.665,600.892 
			84.224,599.396 85.743,597.998 84.328,597.773 85.036,596.565 83.805,596.852 83.91,595.547 81.813,594.687 82.207,596.852 
			81.63,597.806 80.608,597.997 80.19,596.884 79.534,598.092 77.725,597.741 75.524,601.938 73.402,601.972 74.79,602.861 		"/>
		<polygon fill="#CCCCCC" stroke="#FFFFFF" stroke-width="0.5" points="85.64,587.556 91.562,587.843 92.191,585.963 
			88.417,584.594 		"/>
		<polygon fill="#CCCCCC" stroke="#FFFFFF" stroke-width="0.5" points="149.292,666.172 147.222,665.445 145.413,661.687 
			145.492,658.874 144.417,657.673 141.036,655.841 136.974,657.801 136.922,662.918 137.629,663.583 137.131,664.467 
			139.097,664.878 141.927,668.478 143.473,667.878 145.963,669.141 145.779,667.058 146.959,668.541 149.736,669.046 
			148.347,667.184 		"/>
		<polygon fill="#CCCCCC" stroke="#FFFFFF" stroke-width="0.5" points="244.702,600.505 244.835,600.698 244.704,597.264 
			243,595.577 240.301,595.514 240.563,593.795 239.777,593.159 237.209,595.735 237.262,597.74 242.607,598.949 243.105,599.648 
			242.817,596.945 243.76,596.594 		"/>
		<polygon fill="#CCCCCC" stroke="#FFFFFF" stroke-width="0.5" points="240.302,632.127 241.455,634.28 242.896,634.187 
			245.281,635.205 246.827,634.601 246.984,633.747 245.124,632.51 245.439,630.355 246.277,630.007 246.094,627.12 
			246.828,626.391 245.806,626.517 246.355,625.788 244.809,625.406 244.024,624.17 244.312,622.298 243.028,622.647 
			242.372,621.569 242.949,620.808 243.788,621.474 243.945,621.759 245.256,622.075 245.02,620.077 240.512,618.141 
			241.194,620.394 242.321,620.553 242.137,623.091 243.578,623.788 241.796,624.104 241.298,625.563 239.018,627.055 
			238.442,628.481 239.097,629.432 237.76,630.952 		"/>
		<polygon fill="#CCCCCC" stroke="#FFFFFF" stroke-width="0.5" points="245.358,646.318 246.118,645.148 243.131,643.661 
			244.52,643.153 242.686,640.905 242.136,638.753 240.432,638.783 237.89,640.525 236.475,640.399 238.649,642.173 
			239.908,641.761 239.174,642.933 240.668,643.629 240.065,644.515 241.899,644.325 241.874,644.959 243.524,645.243 
			242.659,645.813 		"/>
		<polygon fill="#CCCCCC" stroke="#FFFFFF" stroke-width="0.5" points="149.947,658.274 148.637,660.865 150.025,661.688 
			150.052,659.792 151.126,658.338 153.668,658.241 154.219,656.281 156.525,657.515 158.071,657.419 158.149,656.598 
			157.441,656.598 157.284,655.238 156.472,655.365 156.681,654.132 155.581,654.954 154.166,653.942 155.948,653.847 
			156.236,652.867 155.11,652.583 155.03,651.19 150.785,652.424 148.557,654.985 148.898,656.346 147.194,658.589 		"/>
		<polygon fill="#CCCCCC" stroke="#FFFFFF" stroke-width="0.5" points="99.681,577.786 99.92,576.469 99.396,575.83 98.007,576.724 
			97.613,575.671 95.648,576.021 94.652,574.778 93.605,575.003 91.324,576.374 92.084,578.159 92.191,579.24 92.322,579.941 
			93.291,579.654 92.742,580.42 94.628,580.803 95.048,580.196 95.886,581.249 97.667,581.091 98.637,581.695 98.217,583.352 
			99.134,583.542 99.999,585.136 101.414,585.263 102.383,583.352 101.231,582.618 100.837,580.196 99.422,579.209 99.651,577.946 
			99.632,577.934 		"/>
		<polygon fill="#CCCCCC" stroke="#FFFFFF" stroke-width="0.5" points="213.284,647.11 214.306,647.269 215.014,646.351 
			216.455,646.668 216.848,645.971 217.425,646.668 218.551,645.844 217.162,643.883 214.279,643.659 214.436,642.868 
			215.642,643.249 214.122,641.476 215.956,640.684 215.485,639.766 213.964,639.606 211.737,642.488 213.781,643.533 
			213.363,644.071 214.018,644.515 212.341,645.559 		"/>
		<polygon fill="#CCCCCC" stroke="#FFFFFF" stroke-width="0.5" points="238.755,602.83 239.673,600.923 241.245,600.54 
			240.904,599.969 239.411,600.063 238.468,599.235 236.712,599.904 236.03,601.082 236.974,601.813 236.502,602.258 		"/>
		<polygon fill="#CCCCCC" stroke="#FFFFFF" stroke-width="0.5" points="246.46,650.21 246.774,649.198 245.7,649.767 
			245.988,650.653 244.835,652.867 246.328,652.613 244.861,654.259 245.123,654.797 245.988,654.321 246.093,655.143 
			246.8,655.175 247.77,650.147 247.062,650.622 		"/>
		<polygon fill="#CCCCCC" stroke="#FFFFFF" stroke-width="0.5" points="219.888,650.084 218.472,647.806 218.421,648.945 
			217.738,648.534 217.293,649.547 216.376,649.516 217.031,648.693 215.354,648.851 213.598,647.681 213.991,650.242 
			213.179,650.719 215.38,650.212 216.376,650.813 216.167,651.446 214.307,651.225 215.513,652.49 217.189,652.49 216.639,654.229 
			217.138,654.926 219.837,653.217 220.832,653.691 221.593,652.743 221.488,650.687 		"/>
		<polygon fill="#CCCCCC" stroke="#FFFFFF" stroke-width="0.5" points="162.499,679.554 161.713,678.67 162.421,677.472 
			160.533,676.936 158.673,677.788 158.49,678.608 157.311,678.922 157.337,681.445 156.342,681.792 157.495,682.327 
			156.499,683.211 157.207,684.597 158.386,682.832 159.487,684.69 161.269,683.998 162.055,684.597 163.077,683.684 
			163.208,680.405 162,680.752 		"/>
		<polygon fill="#CCCCCC" stroke="#FFFFFF" stroke-width="0.5" points="165.618,654.765 164.386,657.263 162.578,657.199 
			161.975,655.873 161.32,656.473 160.848,655.777 160.691,656.694 159.695,655.43 158.934,656.22 158.883,655.336 158.018,654.925 
			157.704,655.556 158.647,656.915 157.861,659.286 158.542,659.854 159.878,659.254 160.193,660.864 161.975,661.56 163.6,660.771 
			163.993,659.601 165.802,659.947 165.146,657.988 166.168,655.872 		"/>
		<polygon fill="#CCCCCC" stroke="#FFFFFF" stroke-width="0.5" points="158.202,666.015 158.149,665.067 158.673,666.52 
			159.748,666.489 159.512,664.151 161.006,663.993 161.11,662.478 159.433,663.393 158.725,661.94 157.284,662.35 157.153,661.688 
			156.472,662.54 154.978,660.93 153.615,662.226 153.746,663.267 152.515,663.772 150.916,662.351 149.528,663.615 
			147.353,663.489 150.078,664.469 151.284,665.858 152.725,664.469 154.586,664.596 155.791,667.722 157.102,666.521 		"/>
		<polygon fill="#CCCCCC" stroke="#FFFFFF" stroke-width="0.5" points="195.125,673.117 193.683,673.433 193.657,674.601 
			192.74,674.695 192.032,677.472 193.5,676.81 195.177,677.663 194.364,676.463 195.465,676.18 		"/>
		<polygon fill="#CCCCCC" stroke="#FFFFFF" stroke-width="0.5" points="170.65,663.14 167.872,663.14 167.872,663.141 
			166.719,664.499 166.981,666.613 167.531,666.234 168.343,667.499 172.353,664.908 172.223,663.992 		"/>
		<polygon fill="#CCCCCC" stroke="#FFFFFF" stroke-width="0.5" points="191.089,645.337 189.7,646.192 187.682,645.906 
			184.197,647.932 182.861,647.298 182.442,645.874 181.655,645.937 181.498,647.551 179.506,648.216 180.764,649.955 
			180.108,651.348 181.733,650.715 181.654,651.79 184.169,653.909 184.746,652.676 186.214,652.961 186.423,652.2 190.458,652.833 
			192.922,647.551 		"/>
		<polygon fill="#CCCCCC" stroke="#FFFFFF" stroke-width="0.5" points="176.676,655.998 177.855,652.867 176.937,650.337 
			175.968,649.515 175.575,650.273 174.973,649.324 172.902,649.895 174.003,650.559 174.344,653.753 175.156,654.543 
			175.759,654.228 175.497,652.963 176.545,653.215 		"/>
		<polygon fill="#CCCCCC" stroke="#FFFFFF" stroke-width="0.5" points="180.422,663.329 178.535,661.593 178.851,661.023 
			177.96,660.549 175.051,661.813 175.104,659.854 173.558,658.4 173.348,659.286 171.723,659.286 172.352,659.918 171.461,659.98 
			171.461,661.118 169.338,660.804 171.461,662.036 172.169,661.307 173.505,662.161 173.845,662.95 172.43,663.265 
			173.583,663.929 175.627,662.981 175.757,663.709 174.185,664.813 174.604,666.645 176.255,663.866 178.273,663.36 
			176.57,663.076 177.12,662.192 		"/>
	</g>
	<g>
		<polygon fill="#CCCCCC" stroke="#FFFFFF" stroke-width="0.5" points="366.898,577.583 365.038,575.987 362.364,577.424 
			365.482,579.719 366.059,580.995 366.688,580.737 367.159,581.918 368.05,581.918 368.549,580.835 366.61,579.209 		"/>
		<polygon fill="#CCCCCC" stroke="#FFFFFF" stroke-width="0.5" points="629.709,326.407 629.63,326.244 629.525,326.31 
			629.551,326.572 		"/>
		<polygon fill="#CCCCCC" stroke="#FFFFFF" stroke-width="0.5" points="540.46,294.892 539.503,293.131 540.556,291.669 
			539.616,291.39 538.708,290.612 537.942,291.473 533.479,292.093 529.431,294.175 528.681,293.694 530.1,299.476 536.396,301.931 
			537.146,300.032 540.666,298.172 539.726,297.492 		"/>
		<polygon fill="#CCCCCC" stroke="#FFFFFF" stroke-width="0.5" points="630.232,326.932 629.917,327.259 630.076,327.455 
			630.417,327.227 		"/>
		<path fill="#CCCCCC" stroke="#FFFFFF" stroke-width="0.5" d="M414.541,466.961l-1.207-3.743l-1.179-1.065l-1.23,0.29l-0.919,2.292
			l-3.063,3.324l-0.055,1.321l-4.166,2.483l-0.233,1.228l-0.815,0.258l-2.539-1l-0.263-2.129l-2.333,0.612l1.362-1.902l2.255-0.193
			l-2.597-0.937l-1.679,1.161l-0.994-1.646l0.655-2.323l3.459-1.354l-0.184-1.451l1.31-1.646l0.079-0.971l-3.012-2.485l-0.475-6.012
			l-1.391-0.613l-0.839-1.584l1.389-2.23v-2.296l-1.229-1.456l0.812-2.492l-0.681-1.585l1.283-7.967l4.585-8.232l-0.236-6.293
			l1.784-2.984l-0.865-0.778l-0.288-4.61l-2.7-3.639l0.028-4.583l2.383-5.659l1.183-0.976l1.31,0.065l1.259-2.408l-0.551-2.571
			l0.522-1.432l-0.917-2.833l1.048-1.107l-3.015-7.658l-1.677-1.858l-1.23-4.305l0.498-6.887l-1.18-3.951l1.048-1.862l-0.971-4.183
			l0.683-0.523l-0.185-2.517l1.6-0.36l-5.239-5.233l0.367-2.012l-4.271,0.714l-1.867,2.18l-2.492,0.934l-2.803,2.492l-1.557,2.18
			v1.246l1.557,2.803l-6.521,0.161L374.7,351.9l-2.945-1.029l-2.604-0.397l-2.543,2.51l-7.414-2.61l-3.34,0.715l-0.68-1.321
			l-1.719-0.682l-2.902,4.297l-0.934,1.246h-4.048l-6.229-4.359l-2.014,0.184l-0.542,4.708l-1.111,1.116l-3.062-1.371l-1.914,0.255
			l-4.243-2.332l-2.2,2.154l-2.142-0.246l-2.271,2.608l-0.614,0.28l-3.284,3.244l-2.798,0.807l-0.783,1.241l-3.54,2.742
			l-3.151,5.658l-0.832,1.563l-0.052,1.331l1.312,0.609l0.793,2.908l-2.838,3.889l-3.986,0.778l-0.924,1.029l-2.436-0.052
			l-2.188,0.18l-2.487-4.914l-3.231-1.844l-1.18-1.968l-1.666,3.041l-1.128,0.344l-0.444,3.227l-0.365,0.565l-5.692-1.735
			l-0.42-0.628l-1.062-0.377l-0.609,0.625l-2.53,3.085l-1.375,0.19l-1.635-1.745l-0.506,0.305l-2.859,6.675l3.388,5.236
			l-4.592-0.908l-1.178-0.665l-1.206,0.585l-3.308-1.627l-2.869,3.725l-4.244,1.42l-1.68,2.371l0.482,2.219l-3.228,3.33
			l-1.754,1.552l-1.56,0.352l-0.988,1.902l0.727,1.097l5.355,1.129l1.216,1.221l-0.142,0.928l0.963,1.967l2.003,1.359l-0.422,1.701
			l-2.012,0.893l-0.807,7.609l0.595,2.472l-1.28,2.012l1.313,3.247l0.494,0.308l-0.999,2.559l-2.656,2.303l-0.069,4.276l2.149,1.774
			l3.407-2.556l0.463,1.44l2.495,1.478l1.847,1.568l1.172,0.396l1.983-0.835l2.229-0.787l2.016,0.695l0.619,1.066l0.15,3.163
			l1.257,1.868l-0.594,1.278l-3.115-1.407l-2.403,1.423l-1.18,1.738l1.175,2.953l-0.41,3.564l-1.753,1.46l-1.037,4.63l-1.836,2.594
			l-2.87-0.097l-1.081,1.069l4.707,8.956l-1.285,5.002V485.4l-2.32,1.513l-2.043,4.61l-3.099,1.881l-1.458,0.011l-1.823,1.146
			l-2.012-0.438l-0.649,0.472l-1.655,4.068l-4.929,4.728l-0.78,4.813l-0.155,1.911l-0.891,0.797l-5.211,14.382l0.17,2.312
			l2.767,1.37l0.422,2.901l1.268,2.267l-0.685,3.334l0.689,1.924l1.629,0.429l-0.455,4l-3.695,3.561l-1.155,3.141l0.549,2.862
			l-2.211,2.3l-0.229,0.204l-0.799,2.255l2.654,2.981l0.905,9.2l6.552,6.444l0.194,2.896l1.091,1.043l3.555,3.792l1.741,1.326
			l2.232,8.218l0.089-0.413l1.718,0.254l0.418-2.101l0.551,0.858l0.577-0.383l0.236,1.528l2.935-0.19l1.833-1.338l0.314-1.337
			l0.997-0.127l-0.394-1.242h0.92l0.603-3.82l1.546,1.435l-0.079,1.241l-0.76,0.224l0.865,0.414l-0.367,0.827l1.493,0.541
			l-0.497-0.859l2.174-1.465l1.127,2.166l1.468-2.102l0.969,1.592l1.049-3.344l-1.127-0.256l-0.995-2.805l-1.914,0.353l0.891-1.339
			l2.045,0.925l0.732-0.86l0.236,0.7l-1.178,0.639l1.415,0.732l1.179-4.653l2.019-1.53l0.629,0.32l-1.153,0.988l-1.284,5.447
			l0.157,0.511l0.734-0.639l0.419,0.797l-1.022,2.323l1.338,2.071l-2.176,2.323l0.943,2.037l3.434,1.938l4.245,0.063l-1.678,1.305
			l0.733,1.019l1.049-0.256l0.995,1.849l0.864-1.562l1.6-0.572l0.681,1.208h0.734l0.208-1.208l0.655,1.399l1.888,0.159l0.184-3.691
			l-0.787-1.271l2.018-0.191l0.418-0.826l0.578,0.604l1.625-0.318l0.313,0.159l1.651,0.255l-0.025,3.213l1.546,0.923l-0.026-1.398
			l0.707,0.73l1.415-1.018l-0.473-2.068l2.019-0.892l-0.287-2.005l1.31,0.638l-0.208,1.081l1.021-0.19l1.387,4.613l-4.061-0.128
			l-1.389,0.7l1.781,2.703l1.074-0.795l0.026,1.238l1.284-0.697l0.654,1.018l0.211-1.559l0.472,1.686l1.571,0.318l-0.287-1.877
			l0.785,0.414l0.289-0.7l0.549,2.354h2.806l0.341,0.604l-2.91-0.127l-1.729,1.368l0.367,1.143l1.311-0.095l-0.418,0.856
			l0.786,0.573l1.099-0.318l-0.943,0.765l-0.995-0.318l0.185,1.748l-1.232-2.511l-0.629,0.54l-1.072-1.432l-0.945,1.178
			l-0.654-1.111l0.235,1.43l-0.917,0.413l0.576,1.048l1.049-0.953l2.986,1.209l0.052,1.271l-1.493,0.953l1.127,0.764l0.629-0.954
			l0.838,1.207l-0.287,1.177l0.813-0.382l0.079,1.685l2.489,0.381l1.152-2.225l-1.52-1.206l1.887-0.284l-0.813-0.858l0.994-0.159
			l0.027-2.063l-0.236-0.923l-2.75-0.637l3.931-1.364l-0.498-2.259l0.864,0.128v-1.938l1.049,1.334l0.76-2.288l-0.97-0.254
			l-1.101-2.514l-1.232,0.096l0.604,1.463l-2.359,3.243l-0.184-2.768l0.604-0.765l-0.787-0.763l1.677-2.516l-0.996-0.891
			l0.418-1.688l-0.576-0.256l1.94-1.939l-0.235-1.051l-1.205-0.385l-1.94,0.415l-0.026-1.434l5.189,0.796l0.052-1.019l1.284,0.509
			l0.604-1.942l0.838,0.541l0.918-1.241l-1.967-1.498l0.026-1.399l-2.017-0.67l1.783,0.063l0.262-0.893l0.052-1.211l-1.259-1.309
			l-0.969,1.436l-0.394-0.828l-0.788,0.191l0.184,2.008l-4.062,1.02l-1.493,0.894l-0.105,1.753l-2.727,1.082l0.971-2.42l1.231-0.479
			l-0.708-1.592l0.76,0.413l2.725-1.912l0.342,0.893h1.152l1.311-1.942l2.098-0.19l0.418-0.958l1.074,0.385l-2.961-2.104l0.21-1.053
			l2.279,0.893l1.022-0.415l-0.104-0.828l2.515,1.181l1.545-0.639l1.023-1.816l0.078,1.436l0.865,0.031l-0.603,0.734l3.772,1.146
			l-1.859,1.116l0.313,1.212l-2.227,0.158l1.284,1.814l1.205-0.157l-0.576-1.37l1.965,0.188l0.42,0.227l-1.417,1.146l5.924-1.754
			l-0.863-0.7l-1.364,0.318l-0.786-0.956l2.254-0.638l-2.438-1.944l-0.055-3.382l-2.514,0.063l0.13-0.701l2.175-0.542l-0.942-2.104
			l-1.125-0.129l0.286-1.31l-1.39-1.596l2.201-2.585l4.193-1.342l-3.933,2.361l0.21,3.226l1.521,1.085l0.471,1.883l-0.76,1.085
			l0.84-0.256l0.628,0.829l0.419-1.723l1.835-0.318l-0.288,1.34l1.781,0.732l0.341,1.53l1.18-0.956l-0.521-1.755l1.676-0.799
			l-0.209,0.989l0.864,0.287l0.604,1.816l-1.494,2.2l0.708,0.734l0.604-0.829l1.23,0.031l0.053,0.925l0.864-0.191l0.367,0.733
			l1.128-1.052l2.252,0.669l-0.155-1.244l0.971,0.731l1.806-2.221l-0.313,2.317l1.258-0.19l-1.833,1.529l0.76,0.895l2.937-2.169
			l1.492,1.625l4.43,0.512l0.969-4.909l1.05,0.382l-1.021,4.527h1.647l1.968-3.604l0.077,2.869l2.07-2.423l-0.551,3.029l0.813,3.313
			l0.732,0.382l-0.104,1.754l1.181-0.829l-0.686-0.925l1.154,0.129l-0.208-1.656l0.968,0.351l0.158,1.467l0.942-0.416l-0.916-3.854
			l1.072-0.19l1.103,3.569l0.706-1.146l-0.682-1.434l0.813-0.097l0.21-1.785l1.703-2.68l1.782-1.309l0.708,0.447l-0.21,1.977
			l1.938,0.255l0.316,0.386l1.913-0.319l1.178,0.638l0.131-2.613l-0.523-1.5l-1.021-0.158l0.603-2.074l1.624-0.223l-0.104-0.8
			l1.648,1.084l1.285-0.925l1.65,0.607l1.128-0.703l0.576-2.202l2.332-0.671l0.551-1.725l-0.787-1.372l0.604-1.405l0.971,0.511
			l1.415-3.033l-0.313-1.629l-1.6-0.19l1.86-0.99l0.839-5.02l1.5-1.088l1.981,0.671l0.265-1.183l1.074-0.064l2.018-3.068l1.18,0.479
			l1.493-0.864l-1.783-2.494l1.812-2.912l-1.127-1.729l1.57-1.216v-1.602l-1.362,0.736l0.499-0.992l-1.153,0.063l-0.76-3.01
			l2.228,1.697l2.595-3.235l-0.893-1.571l-0.97,0.258l-0.522-0.705l2.358-0.129l-0.342-1.441l-0.97-0.256l0.078-1.122l-2.306-2.341
			l1.494,0.479l1.938,2.117l0.63,2.948l1.152,0.897l-0.157,2.467l1.81-1.281l0.994,0.416l1.021-1.187l-1.493-0.705l1.259-0.607
			l-0.997-0.736l1.206-0.514l0.185-1.57l-0.761-0.096l1.129-0.514l0.653-2.404l-0.523-3.144l1.126-0.771l0.026-1.379l-0.693-1.449
			l-2.892-0.409l0.001-0.001l3.01,0.221l-1.441-1.379l-0.237-2.313l1.262-2.377l1.049-0.097v-1.604l1.149-1.284l-0.444-1.832
			l2.358-7.521l-0.63-1.896l1.939-2.062l-0.288-2.121l2.463-5.506l-1.598-0.319l1.1-1.063l-0.444-1.318l0.863-0.74l-1.519-3.223
			l2.933-2.644l0.237-3.159l3.064-4.354l-0.682-0.937L414.541,466.961z M294.593,516.298L294.593,516.298 M385.863,548.938
			l-0.377-0.627L385.863,548.938L385.863,548.938z"/>
		<polygon fill="#CCCCCC" stroke="#FFFFFF" stroke-width="0.5" points="629.813,326.932 629.761,326.669 629.655,326.802 
			629.551,326.703 629.394,326.802 629.474,327.163 629.787,327.228 629.813,327.097 629.998,327.063 		"/>
		<polygon fill="#CCCCCC" stroke="#FFFFFF" stroke-width="0.5" points="287.077,605.437 284.013,603.656 280.867,604.737 
			281.155,606.072 282.438,606.39 282.57,607.693 284.589,605.659 		"/>
		<polygon fill="#CCCCCC" stroke="#FFFFFF" stroke-width="0.5" points="270.805,605.438 270.935,604.262 270.177,604.579 
			271.277,603.529 271.408,602.132 270.334,600.826 269.73,601.082 269.52,599.49 268.526,599.363 267.214,601.112 267.345,603.18 
			266.061,602.893 267.974,596.533 264.962,597.806 262.97,601.559 261.66,602.386 262.21,605.597 265.486,606.486 266.875,606.17 
			267.189,604.962 269.469,606.486 270.255,606.17 271.225,607.123 271.958,606.519 273.321,607.376 272.247,605.438 		"/>
		<polygon fill="#CCCCCC" stroke="#FFFFFF" stroke-width="0.5" points="270.779,608.106 269.364,608.011 267.897,606.612 
			264.175,606.898 261.24,608.964 261.581,609.821 259.877,609.567 259.72,607.438 256.549,606.008 257.126,605.086 
			255.501,602.415 255.842,600.922 258.069,600.094 258.069,594.526 257.44,594.24 257.257,595.036 255.055,593.764 
			252.878,594.304 252.459,595.545 251.384,595.927 251.279,597.486 252.249,598.758 250.599,598.981 250.206,598.378 
			249.026,599.776 248.948,601.906 247.978,601.971 246.93,603.94 247.506,606.77 249.681,609.661 249.446,611.092 251.149,614.046 
			250.076,614.301 249.708,616.428 251.202,616.523 251.018,617.73 252.092,618.143 251.673,618.872 254.661,619.507 
			256.784,618.175 256.076,614.49 260.427,613.156 259.797,616.682 261.029,620.966 263.597,621.028 264.07,619.601 264.41,620.426 
			265.93,620.615 265.852,619.536 266.639,619.251 267.581,619.854 266.927,621.79 270.805,620.966 268.316,619.189 
			270.647,616.173 269.782,612.648 270.543,611.441 270.072,610.488 271.251,610.426 		"/>
		<polygon fill="#CCCCCC" stroke="#FFFFFF" stroke-width="0.5" points="344.964,581.122 343.943,581.407 343.444,579.974 
			340.245,581.471 342.027,584.467 341.085,585.263 343.13,586.154 342.316,587.364 343.418,588.321 343.156,588.925 
			344.466,587.077 343.811,586.282 345.436,582.874 		"/>
		<polygon fill="#CCCCCC" stroke="#FFFFFF" stroke-width="0.5" points="291.062,630.577 290.118,629.626 291.114,628.929 
			288.258,627.375 286.58,627.82 287.263,628.804 286.16,629.184 286.606,629.913 287.47,629.405 287.208,630.167 287.995,630.737 
			286.868,631.434 287.13,632.004 288.021,632.163 288.179,631.243 289.935,630.324 292.424,631.18 293.34,628.897 292.005,628.929 
					"/>
		<polygon fill="#CCCCCC" stroke="#FFFFFF" stroke-width="0.5" points="335.297,602.767 334.851,601.526 334.955,600.795 
			333.984,600.224 332.125,602.449 332.229,601.559 330.788,601.272 330.841,600.224 332.832,599.077 332.203,597.773 
			333.462,597.552 332.912,594.625 333.776,594.719 332.805,591.791 330.867,590.868 331.261,588.639 330.475,588.129 
			331.838,588.064 331.34,587.014 332.388,587.109 333.253,585.454 332.361,583.988 331.05,583.479 330.342,584.115 
			329.715,583.833 328.823,583.961 328.063,586.954 329.373,586.827 328.641,587.559 328.378,587.846 327.303,587.973 
			327.801,588.769 326.753,589.024 327.303,589.756 326.229,590.87 326.386,592.525 324.761,591.475 324.789,592.112 
			322.193,592.462 322.22,591.093 320.333,594.181 322.744,596.44 322.482,597.491 323.477,597.204 324.054,600.034 
			320.332,597.427 318.892,598.191 319.441,599.114 318.524,599.272 314.672,596.473 313.755,598.032 312.313,597.842 
			312.786,598.637 311.974,598.286 312.367,598.987 311.554,599.05 309.668,602.198 310.56,605.918 313.022,606.999 
			312.341,607.856 313.284,609.541 314.542,608.81 314.175,607.889 314.935,608.143 315.04,606.776 318.341,606.808 
			319.154,604.329 320.595,605.155 320.569,605.853 319.521,605.536 320.516,607.062 321.224,606.872 320.253,608.492 
			320.228,610.779 315.851,611.955 316.506,612.337 316.269,613.385 317.659,611.829 318.655,611.987 317.24,613.384 
			318.078,614.463 319.31,613.065 321.432,613.129 320.935,613.985 321.798,614.749 319.754,614.908 319.546,617.351 
			322.376,618.463 320.306,619.446 319.521,621.729 320.804,620.969 322.612,621.889 324.104,620.43 325.312,620.906 
			325.469,619.984 323.818,618.557 324.29,617.795 324.472,618.493 326.962,617.477 328.901,618.81 329.372,617.414 
			326.673,617.224 325.286,614.842 326.019,613.063 327.199,613.508 328.64,612.237 327.932,611.381 328.168,609.093 
			330.237,609.538 330.028,610.775 330.709,610.967 331.863,609.061 332.622,610.427 332.07,611.221 334.954,612.079 
			332.936,607.947 333.539,606.868 332.805,606.327 331.941,607.345 331.286,605.914 332.886,604.864 333.462,605.849 
			334.588,605.564 333.436,603.18 334.641,603.465 		"/>
		<polygon fill="#CCCCCC" stroke="#FFFFFF" stroke-width="0.5" points="311.657,612.649 311.108,609.218 310.216,609.218 
			310.819,608.52 309.353,608.52 309.063,609.345 309.772,610.204 309.931,611.252 309.17,611.632 308.698,609.854 308.461,612.141 
			309.798,613.92 309.222,615.063 311.214,615.507 313.099,614.396 313.414,613.221 312.864,612.396 		"/>
		<polygon fill="#CCCCCC" stroke="#FFFFFF" stroke-width="0.5" points="287.655,609.313 289.672,609.504 290.222,608.709 
			287.47,605.849 285.479,606.232 284.614,607.472 285.269,608.075 284.063,607.693 283.907,608.487 287.917,611.188 		"/>
		<polygon fill="#CCCCCC" stroke="#FFFFFF" stroke-width="0.5" points="322.638,590.74 323.79,589.659 324.289,590.357 
			326.018,589.976 326.831,586.378 326.358,585.135 324.655,586.602 324.89,587.716 323.318,587.747 324.209,588.512 
			322.846,589.341 		"/>
	</g>
	<path id="KR-49" fill="#CCCCCC" stroke="#FFFFFF" stroke-width="0.5" d="M166.587,755.161l0.681,0.781l-0.445,0.598l1.442-0.097
		l-0.682,2.909l-2.07-0.5l-0.445-1.438L166.587,755.161z M161.975,770.262l-3.145,2.279l-0.472,2.024l-2.463,2.473l0.157,1.436
		l-1.31,1.468l-5.058-0.094l-3.118,3.245l-8.988,1.122l-2.751,2.933l-1.808,0.688l-0.996-0.904l-1.703-0.063l-0.524,1.279
		l-1.468-0.873l-2.149,0.188l-5.293,1.65l-1.835-1.839l-2.332,0.623l-1.861-0.999l-3.302,1.498l-4.219-1.122l-3.092,2.026
		l0.026,2.961l-1.388-0.498l-0.944,0.623l-0.891-0.592l0.236-1.122l-0.839-0.031l-2.122-2.869l-4.875-2.838l-1.834-2.994
		l0.576-3.308l-0.576-1.813l1.782-1.468l0.026-1.404l2.752-1.779l1.179-1.813l1.206,0.188l2.175-2.5l0.445-2.813l4.194-1.688
		l0.445-1.971l5.371-1.031l1.651-1.346l1.18,0.75l7.888-3.063l1.074-1.223l2.019,0.598l2.41-0.973l4.298-0.094l0.786-1.158
		l3.694-0.25l1.102-2.003l1.887,1.503l1.1-1.128l4.639-0.906l3.17,0.375l0.236-0.938l3.328,1.127l2.752-0.501l1.31,3.005
		l1.755,0.938l0.996-0.625l3.25,1.03l-0.419,1.313h1.022l0.341,0.938l-1.154,2.158l1.809,1.438l1.336-0.5l1.074,1.688l-0.472,0.563
		l-0.996-0.655l-0.812,1.219l-0.105,1.031l1.494,1.094l-0.734,0.876l-1.231-1.313L161.975,770.262z"/>
</g>
<path fill="#CCCCCC" stroke="#FFFFFF" stroke-width="0.5" d="M199.206,395.578"/>
</svg>
